<mxfile host="app.diagrams.net" modified="2023-07-26T10:03:37.818Z" agent="Mozilla/5.0 (X11; Linux x86_64) AppleWebKit/537.36 (KHTML, like Gecko) Chrome/102.0.0.0 Safari/537.36" etag="cB0JDnT4ISCQ8PkKAUwP" version="21.6.5" type="device" pages="3">
  <diagram name="PÃ¡gina-1" id="aOrqjgJX0X1cZK1OQeXR">
    <mxGraphModel dx="1434" dy="770" grid="1" gridSize="10" guides="1" tooltips="1" connect="1" arrows="1" fold="1" page="1" pageScale="1" pageWidth="1169" pageHeight="1654" math="0" shadow="0">
      <root>
        <mxCell id="0" />
        <mxCell id="1" parent="0" />
        <mxCell id="TXVNdsbxdxfbxnSRyo0z-47" value="" style="rounded=1;whiteSpace=wrap;html=1;container=0;fillColor=#ffe6cc;strokeColor=#d79b00;" parent="1" vertex="1">
          <mxGeometry x="130" y="310" width="280" height="220" as="geometry" />
        </mxCell>
        <mxCell id="TXVNdsbxdxfbxnSRyo0z-48" value="" style="group" parent="1" vertex="1" connectable="0">
          <mxGeometry x="150" y="365" width="80" height="80" as="geometry" />
        </mxCell>
        <mxCell id="TXVNdsbxdxfbxnSRyo0z-49" value="" style="ellipse;whiteSpace=wrap;html=1;aspect=fixed;" parent="TXVNdsbxdxfbxnSRyo0z-48" vertex="1">
          <mxGeometry width="80" height="80" as="geometry" />
        </mxCell>
        <mxCell id="TXVNdsbxdxfbxnSRyo0z-50" value="" style="shape=image;verticalLabelPosition=bottom;labelBackgroundColor=default;verticalAlign=top;aspect=fixed;imageAspect=0;image=data:image/svg+xml,PHN2ZyB4bWxucz0iaHR0cDovL3d3dy53My5vcmcvMjAwMC9zdmciIHZpZXdCb3g9IjAgMCA4OTkuMTggOTUzLjkyIiBkYXRhLW5hbWU9IkNhcGEgMSIgaWQ9IkNhcGFfMSI+PGRlZnM+PHN0eWxlPi5jbHMtMXtmaWxsOmdyYXk7fS5jbHMtMntmaWxsOiNmZmE3MDA7fTwvc3R5bGU+PC9kZWZzPjx0aXRsZT5TPC90aXRsZT48cGF0aCBkPSJNNDk1LjQ5LDIzMC45YTYxLjQ2LDYxLjQ2LDAsMCwxLTQwLjYtMTUuNDIsMTgyLjMyLDE4Mi4zMiwwLDAsMC0xMjAuODMtNDUuNjdjLTEwMS4zMywwLTE4My40Nyw4Mi4xNy0xODMuNDcsMTgzLjQ5czgyLjE0LDE4My40MiwxODMuNDcsMTgzLjQySDU3OC42OGE2MS4xNyw2MS4xNywwLDEsMSwwLDEyMi4zM0gzMzQuMDZDMTY1LjIzLDY1OSwyOC4zMiw1MjIuMTQsMjguMzIsMzUzLjI4UzE2NS4yMyw0Ny42MSwzMzQuMDYsNDcuNTRhMzA0Ljc3LDMwNC43NywwLDAsMSwyMDEuOCw3Ni4xMUM1NzguMywxNjAuOTQsNTUyLDIzMC45LDQ5NS40OSwyMzAuOVoiIGNsYXNzPSJjbHMtMSIvPjxwYXRoIGQ9Ik00MDguMzgsNzIzLjExQTYxLjUxLDYxLjUxLDAsMCwxLDQ0OSw3MzguNTFhMTgyLjMzLDE4Mi4zMywwLDAsMCwxMjAuODEsNDUuNjdjMTAxLjYyLDAsMTgzLjkyLTgyLjcyLDE4My40NC0xODQuMzgtLjQ3LTEwMS4zLTg0LjE1LTE4Mi41OS0xODUuNDctMTgyLjU5SDMyNS4xNmE2MS4xNSw2MS4xNSwwLDEsMSwwLTEyMi4yOUg1NjkuNzljMTY4LjgyLDAsMzA1Ljc4LDEzNi45LDMwNS43OCwzMDUuNzVzLTEzNywzMDUuNjctMzA1Ljc4LDMwNS43NUEzMDQuOCwzMDQuOCwwLDAsMSwzNjgsODMwLjMxQzMyNS41OCw3OTMuMDUsMzUxLjg5LDcyMy4xMSw0MDguMzgsNzIzLjExWiIgY2xhc3M9ImNscy0yIi8+PC9zdmc+;" parent="TXVNdsbxdxfbxnSRyo0z-48" vertex="1">
          <mxGeometry x="8.909999999999968" y="7" width="62.19" height="66" as="geometry" />
        </mxCell>
        <mxCell id="TXVNdsbxdxfbxnSRyo0z-51" value="" style="group" parent="1" vertex="1" connectable="0">
          <mxGeometry x="303.5" y="450" width="93" height="30" as="geometry" />
        </mxCell>
        <mxCell id="TXVNdsbxdxfbxnSRyo0z-52" value="" style="rounded=1;whiteSpace=wrap;html=1;" parent="TXVNdsbxdxfbxnSRyo0z-51" vertex="1">
          <mxGeometry x="0.7380952380952381" width="88.57142857142857" height="30" as="geometry" />
        </mxCell>
        <mxCell id="TXVNdsbxdxfbxnSRyo0z-53" value="70.70.70.70" style="text;html=1;strokeColor=none;fillColor=none;align=center;verticalAlign=middle;whiteSpace=wrap;rounded=0;" parent="TXVNdsbxdxfbxnSRyo0z-51" vertex="1">
          <mxGeometry y="3.75" width="93" height="22.5" as="geometry" />
        </mxCell>
        <mxCell id="TXVNdsbxdxfbxnSRyo0z-54" value="" style="group" parent="1" vertex="1" connectable="0">
          <mxGeometry x="143.5" y="450" width="93" height="30" as="geometry" />
        </mxCell>
        <mxCell id="TXVNdsbxdxfbxnSRyo0z-55" value="" style="rounded=1;whiteSpace=wrap;html=1;" parent="TXVNdsbxdxfbxnSRyo0z-54" vertex="1">
          <mxGeometry x="0.7380952380952381" width="88.57142857142857" height="30" as="geometry" />
        </mxCell>
        <mxCell id="TXVNdsbxdxfbxnSRyo0z-56" value="192.168.10.1" style="text;html=1;strokeColor=none;fillColor=none;align=center;verticalAlign=middle;whiteSpace=wrap;rounded=0;" parent="TXVNdsbxdxfbxnSRyo0z-54" vertex="1">
          <mxGeometry y="3.75" width="93" height="22.5" as="geometry" />
        </mxCell>
        <mxCell id="TXVNdsbxdxfbxnSRyo0z-59" style="edgeStyle=orthogonalEdgeStyle;rounded=0;orthogonalLoop=1;jettySize=auto;html=1;exitX=0;exitY=0.5;exitDx=0;exitDy=0;entryX=1;entryY=0.5;entryDx=0;entryDy=0;strokeWidth=4;strokeColor=#FFAD66;" parent="1" target="TXVNdsbxdxfbxnSRyo0z-49" edge="1">
          <mxGeometry relative="1" as="geometry">
            <mxPoint x="310" y="405" as="sourcePoint" />
          </mxGeometry>
        </mxCell>
        <mxCell id="TXVNdsbxdxfbxnSRyo0z-61" value="" style="group" parent="1" vertex="1" connectable="0">
          <mxGeometry x="680" y="310" width="290" height="220" as="geometry" />
        </mxCell>
        <mxCell id="TXVNdsbxdxfbxnSRyo0z-30" value="" style="rounded=1;whiteSpace=wrap;html=1;container=0;fillColor=#fff2cc;strokeColor=#d6b656;" parent="TXVNdsbxdxfbxnSRyo0z-61" vertex="1">
          <mxGeometry width="290" height="220" as="geometry" />
        </mxCell>
        <mxCell id="TXVNdsbxdxfbxnSRyo0z-32" value="" style="group" parent="TXVNdsbxdxfbxnSRyo0z-61" vertex="1" connectable="0">
          <mxGeometry x="196.5" y="55" width="80" height="80" as="geometry" />
        </mxCell>
        <mxCell id="TXVNdsbxdxfbxnSRyo0z-33" value="" style="ellipse;whiteSpace=wrap;html=1;aspect=fixed;" parent="TXVNdsbxdxfbxnSRyo0z-32" vertex="1">
          <mxGeometry width="80" height="80" as="geometry" />
        </mxCell>
        <mxCell id="TXVNdsbxdxfbxnSRyo0z-34" value="" style="shape=image;verticalLabelPosition=bottom;labelBackgroundColor=default;verticalAlign=top;aspect=fixed;imageAspect=0;image=data:image/svg+xml,PHN2ZyB4bWxucz0iaHR0cDovL3d3dy53My5vcmcvMjAwMC9zdmciIHZpZXdCb3g9IjAgMCA4OTkuMTggOTUzLjkyIiBkYXRhLW5hbWU9IkNhcGEgMSIgaWQ9IkNhcGFfMSI+PGRlZnM+PHN0eWxlPi5jbHMtMXtmaWxsOmdyYXk7fS5jbHMtMntmaWxsOiNmZmE3MDA7fTwvc3R5bGU+PC9kZWZzPjx0aXRsZT5TPC90aXRsZT48cGF0aCBkPSJNNDk1LjQ5LDIzMC45YTYxLjQ2LDYxLjQ2LDAsMCwxLTQwLjYtMTUuNDIsMTgyLjMyLDE4Mi4zMiwwLDAsMC0xMjAuODMtNDUuNjdjLTEwMS4zMywwLTE4My40Nyw4Mi4xNy0xODMuNDcsMTgzLjQ5czgyLjE0LDE4My40MiwxODMuNDcsMTgzLjQySDU3OC42OGE2MS4xNyw2MS4xNywwLDEsMSwwLDEyMi4zM0gzMzQuMDZDMTY1LjIzLDY1OSwyOC4zMiw1MjIuMTQsMjguMzIsMzUzLjI4UzE2NS4yMyw0Ny42MSwzMzQuMDYsNDcuNTRhMzA0Ljc3LDMwNC43NywwLDAsMSwyMDEuOCw3Ni4xMUM1NzguMywxNjAuOTQsNTUyLDIzMC45LDQ5NS40OSwyMzAuOVoiIGNsYXNzPSJjbHMtMSIvPjxwYXRoIGQ9Ik00MDguMzgsNzIzLjExQTYxLjUxLDYxLjUxLDAsMCwxLDQ0OSw3MzguNTFhMTgyLjMzLDE4Mi4zMywwLDAsMCwxMjAuODEsNDUuNjdjMTAxLjYyLDAsMTgzLjkyLTgyLjcyLDE4My40NC0xODQuMzgtLjQ3LTEwMS4zLTg0LjE1LTE4Mi41OS0xODUuNDctMTgyLjU5SDMyNS4xNmE2MS4xNSw2MS4xNSwwLDEsMSwwLTEyMi4yOUg1NjkuNzljMTY4LjgyLDAsMzA1Ljc4LDEzNi45LDMwNS43OCwzMDUuNzVzLTEzNywzMDUuNjctMzA1Ljc4LDMwNS43NUEzMDQuOCwzMDQuOCwwLDAsMSwzNjgsODMwLjMxQzMyNS41OCw3OTMuMDUsMzUxLjg5LDcyMy4xMSw0MDguMzgsNzIzLjExWiIgY2xhc3M9ImNscy0yIi8+PC9zdmc+;" parent="TXVNdsbxdxfbxnSRyo0z-32" vertex="1">
          <mxGeometry x="8.909999999999968" y="7" width="62.19" height="66" as="geometry" />
        </mxCell>
        <mxCell id="TXVNdsbxdxfbxnSRyo0z-35" value="" style="group" parent="TXVNdsbxdxfbxnSRyo0z-61" vertex="1" connectable="0">
          <mxGeometry x="13.5" y="140" width="93" height="30" as="geometry" />
        </mxCell>
        <mxCell id="TXVNdsbxdxfbxnSRyo0z-36" value="" style="rounded=1;whiteSpace=wrap;html=1;" parent="TXVNdsbxdxfbxnSRyo0z-35" vertex="1">
          <mxGeometry x="0.7380952380952381" width="88.57142857142857" height="30" as="geometry" />
        </mxCell>
        <mxCell id="TXVNdsbxdxfbxnSRyo0z-37" value="60.60.60.60" style="text;html=1;strokeColor=none;fillColor=none;align=center;verticalAlign=middle;whiteSpace=wrap;rounded=0;" parent="TXVNdsbxdxfbxnSRyo0z-35" vertex="1">
          <mxGeometry y="3.75" width="93" height="22.5" as="geometry" />
        </mxCell>
        <mxCell id="TXVNdsbxdxfbxnSRyo0z-38" value="" style="group" parent="TXVNdsbxdxfbxnSRyo0z-61" vertex="1" connectable="0">
          <mxGeometry x="190" y="140" width="93" height="30" as="geometry" />
        </mxCell>
        <mxCell id="TXVNdsbxdxfbxnSRyo0z-39" value="" style="rounded=1;whiteSpace=wrap;html=1;" parent="TXVNdsbxdxfbxnSRyo0z-38" vertex="1">
          <mxGeometry x="0.7380952380952381" width="88.57142857142857" height="30" as="geometry" />
        </mxCell>
        <mxCell id="TXVNdsbxdxfbxnSRyo0z-40" value="192.168.0.1" style="text;html=1;strokeColor=none;fillColor=none;align=center;verticalAlign=middle;whiteSpace=wrap;rounded=0;" parent="TXVNdsbxdxfbxnSRyo0z-38" vertex="1">
          <mxGeometry y="3.75" width="93" height="22.5" as="geometry" />
        </mxCell>
        <mxCell id="TXVNdsbxdxfbxnSRyo0z-45" style="edgeStyle=orthogonalEdgeStyle;rounded=0;orthogonalLoop=1;jettySize=auto;html=1;exitX=1;exitY=0.5;exitDx=0;exitDy=0;entryX=0;entryY=0.5;entryDx=0;entryDy=0;strokeWidth=4;strokeColor=#FFAD66;" parent="TXVNdsbxdxfbxnSRyo0z-61" target="TXVNdsbxdxfbxnSRyo0z-33" edge="1">
          <mxGeometry relative="1" as="geometry">
            <mxPoint x="100" y="95" as="sourcePoint" />
          </mxGeometry>
        </mxCell>
        <mxCell id="TXVNdsbxdxfbxnSRyo0z-84" value="" style="group" parent="TXVNdsbxdxfbxnSRyo0z-61" vertex="1" connectable="0">
          <mxGeometry x="-13.5" y="64.5" width="120" height="61" as="geometry" />
        </mxCell>
        <mxCell id="TXVNdsbxdxfbxnSRyo0z-85" value="" style="rounded=1;whiteSpace=wrap;html=1;strokeWidth=2;" parent="TXVNdsbxdxfbxnSRyo0z-84" vertex="1">
          <mxGeometry x="20" y="41" width="100" height="30" as="geometry" />
        </mxCell>
        <mxCell id="TXVNdsbxdxfbxnSRyo0z-86" value="" style="ellipse;whiteSpace=wrap;html=1;aspect=fixed;fillColor=#000000;" parent="TXVNdsbxdxfbxnSRyo0z-84" vertex="1">
          <mxGeometry x="97.5" y="51" width="10" height="10" as="geometry" />
        </mxCell>
        <mxCell id="TXVNdsbxdxfbxnSRyo0z-87" value="" style="ellipse;whiteSpace=wrap;html=1;aspect=fixed;fillColor=#000000;" parent="TXVNdsbxdxfbxnSRyo0z-84" vertex="1">
          <mxGeometry x="82.5" y="51" width="10" height="10" as="geometry" />
        </mxCell>
        <mxCell id="TXVNdsbxdxfbxnSRyo0z-88" value="" style="endArrow=none;html=1;rounded=0;strokeWidth=2;" parent="TXVNdsbxdxfbxnSRyo0z-84" edge="1">
          <mxGeometry width="50" height="50" relative="1" as="geometry">
            <mxPoint x="80" y="41" as="sourcePoint" />
            <mxPoint x="110" y="11" as="targetPoint" />
          </mxGeometry>
        </mxCell>
        <mxCell id="TXVNdsbxdxfbxnSRyo0z-89" value="" style="endArrow=none;html=1;rounded=0;strokeWidth=2;" parent="TXVNdsbxdxfbxnSRyo0z-84" edge="1">
          <mxGeometry width="50" height="50" relative="1" as="geometry">
            <mxPoint x="79.5" y="40" as="sourcePoint" />
            <mxPoint x="57" y="10" as="targetPoint" />
          </mxGeometry>
        </mxCell>
        <mxCell id="TXVNdsbxdxfbxnSRyo0z-62" value="" style="endArrow=classic;html=1;rounded=0;strokeWidth=4;fillColor=#ffe6cc;strokeColor=#d79b00;" parent="1" edge="1">
          <mxGeometry width="50" height="50" relative="1" as="geometry">
            <mxPoint x="430" y="404.5" as="sourcePoint" />
            <mxPoint x="660" y="405" as="targetPoint" />
          </mxGeometry>
        </mxCell>
        <mxCell id="TXVNdsbxdxfbxnSRyo0z-63" value="" style="endArrow=none;html=1;rounded=0;startArrow=classic;startFill=1;strokeWidth=4;endFill=0;fillColor=#ffe6cc;strokeColor=#d79b00;" parent="1" edge="1">
          <mxGeometry width="50" height="50" relative="1" as="geometry">
            <mxPoint x="430" y="444" as="sourcePoint" />
            <mxPoint x="660" y="444.5" as="targetPoint" />
          </mxGeometry>
        </mxCell>
        <mxCell id="TXVNdsbxdxfbxnSRyo0z-65" value="" style="rounded=1;whiteSpace=wrap;html=1;fillColor=#f5f5f5;fontColor=#333333;strokeColor=#666666;" parent="1" vertex="1">
          <mxGeometry x="485" y="370" width="120" height="110" as="geometry" />
        </mxCell>
        <mxCell id="TXVNdsbxdxfbxnSRyo0z-66" value="&lt;font style=&quot;font-size: 17px;&quot;&gt;Identify&lt;br&gt;Protocol&lt;/font&gt;" style="text;html=1;strokeColor=none;fillColor=none;align=center;verticalAlign=middle;whiteSpace=wrap;rounded=0;" parent="1" vertex="1">
          <mxGeometry x="502.5" y="392.5" width="85" height="65" as="geometry" />
        </mxCell>
        <mxCell id="TXVNdsbxdxfbxnSRyo0z-83" value="" style="group" parent="1" vertex="1" connectable="0">
          <mxGeometry x="280" y="374.5" width="120" height="61" as="geometry" />
        </mxCell>
        <mxCell id="TXVNdsbxdxfbxnSRyo0z-68" value="" style="rounded=1;whiteSpace=wrap;html=1;strokeWidth=2;" parent="TXVNdsbxdxfbxnSRyo0z-83" vertex="1">
          <mxGeometry x="20" y="41" width="100" height="30" as="geometry" />
        </mxCell>
        <mxCell id="TXVNdsbxdxfbxnSRyo0z-70" value="" style="ellipse;whiteSpace=wrap;html=1;aspect=fixed;fillColor=#000000;" parent="TXVNdsbxdxfbxnSRyo0z-83" vertex="1">
          <mxGeometry x="97.5" y="51" width="10" height="10" as="geometry" />
        </mxCell>
        <mxCell id="TXVNdsbxdxfbxnSRyo0z-71" value="" style="ellipse;whiteSpace=wrap;html=1;aspect=fixed;fillColor=#000000;" parent="TXVNdsbxdxfbxnSRyo0z-83" vertex="1">
          <mxGeometry x="82.5" y="51" width="10" height="10" as="geometry" />
        </mxCell>
        <mxCell id="TXVNdsbxdxfbxnSRyo0z-72" value="" style="endArrow=none;html=1;rounded=0;strokeWidth=2;" parent="TXVNdsbxdxfbxnSRyo0z-83" edge="1">
          <mxGeometry width="50" height="50" relative="1" as="geometry">
            <mxPoint x="80" y="41" as="sourcePoint" />
            <mxPoint x="110" y="11" as="targetPoint" />
          </mxGeometry>
        </mxCell>
        <mxCell id="TXVNdsbxdxfbxnSRyo0z-73" value="" style="endArrow=none;html=1;rounded=0;strokeWidth=2;" parent="TXVNdsbxdxfbxnSRyo0z-83" edge="1">
          <mxGeometry width="50" height="50" relative="1" as="geometry">
            <mxPoint x="79.5" y="40" as="sourcePoint" />
            <mxPoint x="57" y="10" as="targetPoint" />
          </mxGeometry>
        </mxCell>
      </root>
    </mxGraphModel>
  </diagram>
  <diagram id="Il28n32Dy79ZDZUoJD21" name="Salientes">
    <mxGraphModel dx="1247" dy="670" grid="1" gridSize="10" guides="1" tooltips="1" connect="1" arrows="1" fold="1" page="1" pageScale="1" pageWidth="1169" pageHeight="1654" math="0" shadow="0">
      <root>
        <mxCell id="0" />
        <mxCell id="1" parent="0" />
        <mxCell id="yNo5HkA_72xgunGLWPNe-1" value="" style="group" vertex="1" connectable="0" parent="1">
          <mxGeometry x="900" y="380" width="80" height="80" as="geometry" />
        </mxCell>
        <mxCell id="yNo5HkA_72xgunGLWPNe-2" value="" style="ellipse;whiteSpace=wrap;html=1;aspect=fixed;" vertex="1" parent="yNo5HkA_72xgunGLWPNe-1">
          <mxGeometry width="80" height="80" as="geometry" />
        </mxCell>
        <mxCell id="yNo5HkA_72xgunGLWPNe-3" value="" style="shape=image;verticalLabelPosition=bottom;labelBackgroundColor=default;verticalAlign=top;aspect=fixed;imageAspect=0;image=data:image/svg+xml,PHN2ZyB4bWxucz0iaHR0cDovL3d3dy53My5vcmcvMjAwMC9zdmciIHZpZXdCb3g9IjAgMCA4OTkuMTggOTUzLjkyIiBkYXRhLW5hbWU9IkNhcGEgMSIgaWQ9IkNhcGFfMSI+PGRlZnM+PHN0eWxlPi5jbHMtMXtmaWxsOmdyYXk7fS5jbHMtMntmaWxsOiNmZmE3MDA7fTwvc3R5bGU+PC9kZWZzPjx0aXRsZT5TPC90aXRsZT48cGF0aCBkPSJNNDk1LjQ5LDIzMC45YTYxLjQ2LDYxLjQ2LDAsMCwxLTQwLjYtMTUuNDIsMTgyLjMyLDE4Mi4zMiwwLDAsMC0xMjAuODMtNDUuNjdjLTEwMS4zMywwLTE4My40Nyw4Mi4xNy0xODMuNDcsMTgzLjQ5czgyLjE0LDE4My40MiwxODMuNDcsMTgzLjQySDU3OC42OGE2MS4xNyw2MS4xNywwLDEsMSwwLDEyMi4zM0gzMzQuMDZDMTY1LjIzLDY1OSwyOC4zMiw1MjIuMTQsMjguMzIsMzUzLjI4UzE2NS4yMyw0Ny42MSwzMzQuMDYsNDcuNTRhMzA0Ljc3LDMwNC43NywwLDAsMSwyMDEuOCw3Ni4xMUM1NzguMywxNjAuOTQsNTUyLDIzMC45LDQ5NS40OSwyMzAuOVoiIGNsYXNzPSJjbHMtMSIvPjxwYXRoIGQ9Ik00MDguMzgsNzIzLjExQTYxLjUxLDYxLjUxLDAsMCwxLDQ0OSw3MzguNTFhMTgyLjMzLDE4Mi4zMywwLDAsMCwxMjAuODEsNDUuNjdjMTAxLjYyLDAsMTgzLjkyLTgyLjcyLDE4My40NC0xODQuMzgtLjQ3LTEwMS4zLTg0LjE1LTE4Mi41OS0xODUuNDctMTgyLjU5SDMyNS4xNmE2MS4xNSw2MS4xNSwwLDEsMSwwLTEyMi4yOUg1NjkuNzljMTY4LjgyLDAsMzA1Ljc4LDEzNi45LDMwNS43OCwzMDUuNzVzLTEzNywzMDUuNjctMzA1Ljc4LDMwNS43NUEzMDQuOCwzMDQuOCwwLDAsMSwzNjgsODMwLjMxQzMyNS41OCw3OTMuMDUsMzUxLjg5LDcyMy4xMSw0MDguMzgsNzIzLjExWiIgY2xhc3M9ImNscy0yIi8+PC9zdmc+;" vertex="1" parent="yNo5HkA_72xgunGLWPNe-1">
          <mxGeometry x="8.909999999999968" y="7" width="62.19" height="66" as="geometry" />
        </mxCell>
        <mxCell id="m-edsfp2VqD4D8LtMEiC-1" value="" style="group" vertex="1" connectable="0" parent="1">
          <mxGeometry x="560" y="380" width="120" height="61" as="geometry" />
        </mxCell>
        <mxCell id="m-edsfp2VqD4D8LtMEiC-2" value="" style="rounded=1;whiteSpace=wrap;html=1;strokeWidth=2;" vertex="1" parent="m-edsfp2VqD4D8LtMEiC-1">
          <mxGeometry x="20" y="41" width="100" height="30" as="geometry" />
        </mxCell>
        <mxCell id="m-edsfp2VqD4D8LtMEiC-3" value="" style="ellipse;whiteSpace=wrap;html=1;aspect=fixed;fillColor=#000000;" vertex="1" parent="m-edsfp2VqD4D8LtMEiC-1">
          <mxGeometry x="97.5" y="51" width="10" height="10" as="geometry" />
        </mxCell>
        <mxCell id="m-edsfp2VqD4D8LtMEiC-4" value="" style="ellipse;whiteSpace=wrap;html=1;aspect=fixed;fillColor=#000000;" vertex="1" parent="m-edsfp2VqD4D8LtMEiC-1">
          <mxGeometry x="82.5" y="51" width="10" height="10" as="geometry" />
        </mxCell>
        <mxCell id="m-edsfp2VqD4D8LtMEiC-5" value="" style="endArrow=none;html=1;rounded=0;strokeWidth=2;" edge="1" parent="m-edsfp2VqD4D8LtMEiC-1">
          <mxGeometry width="50" height="50" relative="1" as="geometry">
            <mxPoint x="80" y="41" as="sourcePoint" />
            <mxPoint x="110" y="11" as="targetPoint" />
          </mxGeometry>
        </mxCell>
        <mxCell id="m-edsfp2VqD4D8LtMEiC-6" value="" style="endArrow=none;html=1;rounded=0;strokeWidth=2;" edge="1" parent="m-edsfp2VqD4D8LtMEiC-1">
          <mxGeometry width="50" height="50" relative="1" as="geometry">
            <mxPoint x="79.5" y="40" as="sourcePoint" />
            <mxPoint x="57" y="10" as="targetPoint" />
          </mxGeometry>
        </mxCell>
        <mxCell id="m-edsfp2VqD4D8LtMEiC-19" value="" style="group" vertex="1" connectable="0" parent="1">
          <mxGeometry x="670" y="310" width="230" height="90" as="geometry" />
        </mxCell>
        <mxCell id="m-edsfp2VqD4D8LtMEiC-7" value="" style="rounded=0;whiteSpace=wrap;html=1;" vertex="1" parent="m-edsfp2VqD4D8LtMEiC-19">
          <mxGeometry y="10" width="230" height="60" as="geometry" />
        </mxCell>
        <mxCell id="m-edsfp2VqD4D8LtMEiC-12" value="" style="rounded=0;whiteSpace=wrap;html=1;" vertex="1" parent="m-edsfp2VqD4D8LtMEiC-19">
          <mxGeometry y="10" width="120" height="60" as="geometry" />
        </mxCell>
        <mxCell id="m-edsfp2VqD4D8LtMEiC-11" value="" style="group" vertex="1" connectable="0" parent="m-edsfp2VqD4D8LtMEiC-19">
          <mxGeometry x="105" y="60" width="70" height="30" as="geometry" />
        </mxCell>
        <mxCell id="m-edsfp2VqD4D8LtMEiC-9" value="" style="rounded=1;whiteSpace=wrap;html=1;" vertex="1" parent="m-edsfp2VqD4D8LtMEiC-11">
          <mxGeometry y="5" width="70" height="20" as="geometry" />
        </mxCell>
        <mxCell id="m-edsfp2VqD4D8LtMEiC-10" value="Package" style="text;html=1;strokeColor=none;fillColor=none;align=center;verticalAlign=middle;whiteSpace=wrap;rounded=0;" vertex="1" parent="m-edsfp2VqD4D8LtMEiC-11">
          <mxGeometry x="5" width="60" height="30" as="geometry" />
        </mxCell>
        <mxCell id="m-edsfp2VqD4D8LtMEiC-16" value="" style="group" vertex="1" connectable="0" parent="m-edsfp2VqD4D8LtMEiC-19">
          <mxGeometry x="25" y="30" width="69" height="30" as="geometry" />
        </mxCell>
        <mxCell id="m-edsfp2VqD4D8LtMEiC-17" value="" style="rounded=1;whiteSpace=wrap;html=1;" vertex="1" parent="m-edsfp2VqD4D8LtMEiC-16">
          <mxGeometry y="5" width="70" height="20" as="geometry" />
        </mxCell>
        <mxCell id="m-edsfp2VqD4D8LtMEiC-18" value="192.168.1.1" style="text;html=1;strokeColor=none;fillColor=none;align=center;verticalAlign=middle;whiteSpace=wrap;rounded=0;" vertex="1" parent="m-edsfp2VqD4D8LtMEiC-16">
          <mxGeometry x="5" width="59" height="30" as="geometry" />
        </mxCell>
        <mxCell id="t69-vILRkfHXAJXKD3uJ-7" value="" style="group" vertex="1" connectable="0" parent="m-edsfp2VqD4D8LtMEiC-19">
          <mxGeometry x="19.5" y="-10" width="80" height="40" as="geometry" />
        </mxCell>
        <mxCell id="t69-vILRkfHXAJXKD3uJ-8" value="" style="rounded=1;whiteSpace=wrap;html=1;" vertex="1" parent="t69-vILRkfHXAJXKD3uJ-7">
          <mxGeometry y="6.666666666666666" width="80" height="26.666666666666664" as="geometry" />
        </mxCell>
        <mxCell id="t69-vILRkfHXAJXKD3uJ-9" value="Header&lt;br&gt;Sender" style="text;html=1;strokeColor=none;fillColor=none;align=center;verticalAlign=middle;whiteSpace=wrap;rounded=0;" vertex="1" parent="t69-vILRkfHXAJXKD3uJ-7">
          <mxGeometry x="5.7142857142857135" width="68.57142857142857" height="40" as="geometry" />
        </mxCell>
        <mxCell id="m-edsfp2VqD4D8LtMEiC-20" value="" style="endArrow=classic;html=1;rounded=0;strokeWidth=4;strokeColor=#FFAD66;" edge="1" parent="1">
          <mxGeometry width="50" height="50" relative="1" as="geometry">
            <mxPoint x="862" y="430" as="sourcePoint" />
            <mxPoint x="712" y="430" as="targetPoint" />
          </mxGeometry>
        </mxCell>
        <mxCell id="m-edsfp2VqD4D8LtMEiC-21" value="" style="group" vertex="1" connectable="0" parent="1">
          <mxGeometry x="750" y="441" width="80" height="40" as="geometry" />
        </mxCell>
        <mxCell id="m-edsfp2VqD4D8LtMEiC-22" value="" style="rounded=1;whiteSpace=wrap;html=1;" vertex="1" parent="m-edsfp2VqD4D8LtMEiC-21">
          <mxGeometry y="6.666666666666666" width="80" height="26.666666666666664" as="geometry" />
        </mxCell>
        <mxCell id="m-edsfp2VqD4D8LtMEiC-23" value="Sending&lt;br&gt;Package" style="text;html=1;strokeColor=none;fillColor=none;align=center;verticalAlign=middle;whiteSpace=wrap;rounded=0;" vertex="1" parent="m-edsfp2VqD4D8LtMEiC-21">
          <mxGeometry x="5.7142857142857135" width="68.57142857142857" height="40" as="geometry" />
        </mxCell>
        <mxCell id="m-edsfp2VqD4D8LtMEiC-24" value="" style="endArrow=classic;html=1;rounded=0;strokeWidth=4;strokeColor=#FFAD66;" edge="1" parent="1">
          <mxGeometry width="50" height="50" relative="1" as="geometry">
            <mxPoint x="560" y="430" as="sourcePoint" />
            <mxPoint x="370" y="430" as="targetPoint" />
          </mxGeometry>
        </mxCell>
        <mxCell id="m-edsfp2VqD4D8LtMEiC-25" value="" style="group" vertex="1" connectable="0" parent="1">
          <mxGeometry x="380" y="160" width="230" height="90" as="geometry" />
        </mxCell>
        <mxCell id="m-edsfp2VqD4D8LtMEiC-26" value="" style="rounded=0;whiteSpace=wrap;html=1;" vertex="1" parent="m-edsfp2VqD4D8LtMEiC-25">
          <mxGeometry y="10" width="230" height="60" as="geometry" />
        </mxCell>
        <mxCell id="m-edsfp2VqD4D8LtMEiC-27" value="" style="rounded=0;whiteSpace=wrap;html=1;" vertex="1" parent="m-edsfp2VqD4D8LtMEiC-25">
          <mxGeometry y="10" width="120" height="60" as="geometry" />
        </mxCell>
        <mxCell id="m-edsfp2VqD4D8LtMEiC-28" value="" style="group" vertex="1" connectable="0" parent="m-edsfp2VqD4D8LtMEiC-25">
          <mxGeometry x="105" y="60" width="70" height="30" as="geometry" />
        </mxCell>
        <mxCell id="m-edsfp2VqD4D8LtMEiC-29" value="" style="rounded=1;whiteSpace=wrap;html=1;" vertex="1" parent="m-edsfp2VqD4D8LtMEiC-28">
          <mxGeometry y="5" width="70" height="20" as="geometry" />
        </mxCell>
        <mxCell id="m-edsfp2VqD4D8LtMEiC-30" value="Package" style="text;html=1;strokeColor=none;fillColor=none;align=center;verticalAlign=middle;whiteSpace=wrap;rounded=0;" vertex="1" parent="m-edsfp2VqD4D8LtMEiC-28">
          <mxGeometry x="5" width="60" height="30" as="geometry" />
        </mxCell>
        <mxCell id="m-edsfp2VqD4D8LtMEiC-34" value="" style="group" vertex="1" connectable="0" parent="m-edsfp2VqD4D8LtMEiC-25">
          <mxGeometry x="25" y="30" width="69" height="30" as="geometry" />
        </mxCell>
        <mxCell id="m-edsfp2VqD4D8LtMEiC-35" value="" style="rounded=1;whiteSpace=wrap;html=1;" vertex="1" parent="m-edsfp2VqD4D8LtMEiC-34">
          <mxGeometry y="5" width="70" height="20" as="geometry" />
        </mxCell>
        <mxCell id="m-edsfp2VqD4D8LtMEiC-36" value="192.168.1.1" style="text;html=1;strokeColor=none;fillColor=none;align=center;verticalAlign=middle;whiteSpace=wrap;rounded=0;" vertex="1" parent="m-edsfp2VqD4D8LtMEiC-34">
          <mxGeometry x="5" width="59" height="30" as="geometry" />
        </mxCell>
        <mxCell id="t69-vILRkfHXAJXKD3uJ-4" value="" style="group" vertex="1" connectable="0" parent="m-edsfp2VqD4D8LtMEiC-25">
          <mxGeometry x="19.5" y="-10" width="80" height="40" as="geometry" />
        </mxCell>
        <mxCell id="t69-vILRkfHXAJXKD3uJ-5" value="" style="rounded=1;whiteSpace=wrap;html=1;" vertex="1" parent="t69-vILRkfHXAJXKD3uJ-4">
          <mxGeometry y="6.666666666666666" width="80" height="26.666666666666664" as="geometry" />
        </mxCell>
        <mxCell id="t69-vILRkfHXAJXKD3uJ-6" value="Header&lt;br&gt;Sender" style="text;html=1;strokeColor=none;fillColor=none;align=center;verticalAlign=middle;whiteSpace=wrap;rounded=0;" vertex="1" parent="t69-vILRkfHXAJXKD3uJ-4">
          <mxGeometry x="5.7142857142857135" width="68.57142857142857" height="40" as="geometry" />
        </mxCell>
        <mxCell id="m-edsfp2VqD4D8LtMEiC-37" value="" style="group" vertex="1" connectable="0" parent="1">
          <mxGeometry x="380" y="310" width="230" height="90" as="geometry" />
        </mxCell>
        <mxCell id="m-edsfp2VqD4D8LtMEiC-38" value="" style="rounded=0;whiteSpace=wrap;html=1;" vertex="1" parent="m-edsfp2VqD4D8LtMEiC-37">
          <mxGeometry y="10" width="230" height="60" as="geometry" />
        </mxCell>
        <mxCell id="m-edsfp2VqD4D8LtMEiC-39" value="" style="rounded=0;whiteSpace=wrap;html=1;" vertex="1" parent="m-edsfp2VqD4D8LtMEiC-37">
          <mxGeometry y="10" width="120" height="60" as="geometry" />
        </mxCell>
        <mxCell id="m-edsfp2VqD4D8LtMEiC-40" value="" style="group" vertex="1" connectable="0" parent="m-edsfp2VqD4D8LtMEiC-37">
          <mxGeometry x="105" y="60" width="70" height="30" as="geometry" />
        </mxCell>
        <mxCell id="m-edsfp2VqD4D8LtMEiC-41" value="" style="rounded=1;whiteSpace=wrap;html=1;" vertex="1" parent="m-edsfp2VqD4D8LtMEiC-40">
          <mxGeometry y="5" width="70" height="20" as="geometry" />
        </mxCell>
        <mxCell id="m-edsfp2VqD4D8LtMEiC-42" value="Package" style="text;html=1;strokeColor=none;fillColor=none;align=center;verticalAlign=middle;whiteSpace=wrap;rounded=0;" vertex="1" parent="m-edsfp2VqD4D8LtMEiC-40">
          <mxGeometry x="5" width="60" height="30" as="geometry" />
        </mxCell>
        <mxCell id="m-edsfp2VqD4D8LtMEiC-46" value="" style="group" vertex="1" connectable="0" parent="m-edsfp2VqD4D8LtMEiC-37">
          <mxGeometry x="25" y="30" width="69" height="30" as="geometry" />
        </mxCell>
        <mxCell id="m-edsfp2VqD4D8LtMEiC-47" value="" style="rounded=1;whiteSpace=wrap;html=1;" vertex="1" parent="m-edsfp2VqD4D8LtMEiC-46">
          <mxGeometry y="5" width="70" height="20" as="geometry" />
        </mxCell>
        <mxCell id="m-edsfp2VqD4D8LtMEiC-48" value="70.70.70.70" style="text;html=1;strokeColor=none;fillColor=none;align=center;verticalAlign=middle;whiteSpace=wrap;rounded=0;" vertex="1" parent="m-edsfp2VqD4D8LtMEiC-46">
          <mxGeometry x="5" width="59" height="30" as="geometry" />
        </mxCell>
        <mxCell id="t69-vILRkfHXAJXKD3uJ-1" value="" style="group" vertex="1" connectable="0" parent="m-edsfp2VqD4D8LtMEiC-37">
          <mxGeometry x="20" y="-10" width="80" height="40" as="geometry" />
        </mxCell>
        <mxCell id="t69-vILRkfHXAJXKD3uJ-2" value="" style="rounded=1;whiteSpace=wrap;html=1;" vertex="1" parent="t69-vILRkfHXAJXKD3uJ-1">
          <mxGeometry y="6.666666666666666" width="80" height="26.666666666666664" as="geometry" />
        </mxCell>
        <mxCell id="t69-vILRkfHXAJXKD3uJ-3" value="Header&lt;br&gt;Sender" style="text;html=1;strokeColor=none;fillColor=none;align=center;verticalAlign=middle;whiteSpace=wrap;rounded=0;" vertex="1" parent="t69-vILRkfHXAJXKD3uJ-1">
          <mxGeometry x="5.7142857142857135" width="68.57142857142857" height="40" as="geometry" />
        </mxCell>
        <mxCell id="m-edsfp2VqD4D8LtMEiC-49" value="" style="endArrow=classic;html=1;rounded=0;strokeWidth=4;strokeColor=#FFAD66;" edge="1" parent="1">
          <mxGeometry width="50" height="50" relative="1" as="geometry">
            <mxPoint x="500" y="252" as="sourcePoint" />
            <mxPoint x="500" y="312" as="targetPoint" />
          </mxGeometry>
        </mxCell>
        <mxCell id="m-edsfp2VqD4D8LtMEiC-50" value="" style="group" vertex="1" connectable="0" parent="1">
          <mxGeometry x="520" y="260" width="80" height="40" as="geometry" />
        </mxCell>
        <mxCell id="m-edsfp2VqD4D8LtMEiC-51" value="" style="rounded=1;whiteSpace=wrap;html=1;" vertex="1" parent="m-edsfp2VqD4D8LtMEiC-50">
          <mxGeometry y="6.666666666666666" width="80" height="26.666666666666664" as="geometry" />
        </mxCell>
        <mxCell id="m-edsfp2VqD4D8LtMEiC-52" value="NAT" style="text;html=1;strokeColor=none;fillColor=none;align=center;verticalAlign=middle;whiteSpace=wrap;rounded=0;" vertex="1" parent="m-edsfp2VqD4D8LtMEiC-50">
          <mxGeometry x="5.7142857142857135" width="68.57142857142857" height="40" as="geometry" />
        </mxCell>
        <mxCell id="m-edsfp2VqD4D8LtMEiC-55" value="" style="rounded=1;whiteSpace=wrap;html=1;" vertex="1" parent="1">
          <mxGeometry x="540" y="481" width="180" height="79" as="geometry" />
        </mxCell>
        <mxCell id="m-edsfp2VqD4D8LtMEiC-57" value="" style="group" vertex="1" connectable="0" parent="1">
          <mxGeometry x="560" y="490" width="70" height="30" as="geometry" />
        </mxCell>
        <mxCell id="m-edsfp2VqD4D8LtMEiC-58" value="" style="rounded=1;whiteSpace=wrap;html=1;" vertex="1" parent="m-edsfp2VqD4D8LtMEiC-57">
          <mxGeometry y="5" width="70" height="20" as="geometry" />
        </mxCell>
        <mxCell id="m-edsfp2VqD4D8LtMEiC-59" value="Port" style="text;html=1;strokeColor=none;fillColor=none;align=center;verticalAlign=middle;whiteSpace=wrap;rounded=0;" vertex="1" parent="m-edsfp2VqD4D8LtMEiC-57">
          <mxGeometry x="5" width="60" height="30" as="geometry" />
        </mxCell>
        <mxCell id="m-edsfp2VqD4D8LtMEiC-60" value="" style="group" vertex="1" connectable="0" parent="1">
          <mxGeometry x="640" y="490" width="70" height="30" as="geometry" />
        </mxCell>
        <mxCell id="m-edsfp2VqD4D8LtMEiC-61" value="" style="rounded=1;whiteSpace=wrap;html=1;" vertex="1" parent="m-edsfp2VqD4D8LtMEiC-60">
          <mxGeometry y="5" width="70" height="20" as="geometry" />
        </mxCell>
        <mxCell id="m-edsfp2VqD4D8LtMEiC-62" value="Addr" style="text;html=1;strokeColor=none;fillColor=none;align=center;verticalAlign=middle;whiteSpace=wrap;rounded=0;" vertex="1" parent="m-edsfp2VqD4D8LtMEiC-60">
          <mxGeometry x="5" width="60" height="30" as="geometry" />
        </mxCell>
        <mxCell id="m-edsfp2VqD4D8LtMEiC-63" value="40020" style="text;html=1;strokeColor=none;fillColor=none;align=center;verticalAlign=middle;whiteSpace=wrap;rounded=0;" vertex="1" parent="1">
          <mxGeometry x="560" y="520" width="60" height="30" as="geometry" />
        </mxCell>
        <mxCell id="m-edsfp2VqD4D8LtMEiC-64" value="192.168.1.1" style="text;html=1;strokeColor=none;fillColor=none;align=center;verticalAlign=middle;whiteSpace=wrap;rounded=0;" vertex="1" parent="1">
          <mxGeometry x="645" y="520" width="60" height="30" as="geometry" />
        </mxCell>
        <mxCell id="m-edsfp2VqD4D8LtMEiC-69" value="" style="group" vertex="1" connectable="0" parent="1">
          <mxGeometry x="469" y="412" width="80" height="40" as="geometry" />
        </mxCell>
        <mxCell id="m-edsfp2VqD4D8LtMEiC-70" value="" style="rounded=1;whiteSpace=wrap;html=1;" vertex="1" parent="m-edsfp2VqD4D8LtMEiC-69">
          <mxGeometry y="6.666666666666666" width="80" height="26.666666666666664" as="geometry" />
        </mxCell>
        <mxCell id="m-edsfp2VqD4D8LtMEiC-71" value="Port&lt;br&gt;40020" style="text;html=1;strokeColor=none;fillColor=none;align=center;verticalAlign=middle;whiteSpace=wrap;rounded=0;" vertex="1" parent="m-edsfp2VqD4D8LtMEiC-69">
          <mxGeometry x="5.7142857142857135" width="68.57142857142857" height="40" as="geometry" />
        </mxCell>
        <mxCell id="zdObHA1pdpIKUP1um2eX-1" value="" style="shape=image;verticalLabelPosition=bottom;labelBackgroundColor=default;verticalAlign=top;aspect=fixed;imageAspect=0;image=data:image/png,iVBORw0KGgoAAAANSUhEUgAAAgAAAAIACAYAAAD0eNT6AAAABHNCSVQICAgIfAhkiAAAAAlwSFlzAAAPaAAAD2gBXvJN6AAAABl0RVh0U29mdHdhcmUAd3d3Lmlua3NjYXBlLm9yZ5vuPBoAACAASURBVHic7d13uKZVefb/794zA1MoU6jDDIz03qU3BQTBrqAROxFjfI1JNGo0RuPvTV41sUUTxRKVaIhoYkEpItJUuiCCdBh6GZgCU5iZPXv//lh7w57NLk+5z2vd5fwcxzoGcVjPup67Xc+6V+nBzMpuMrD5YNkSmAnMGvxzeJkNbAZsCkwDNhr8bzcEekaU0QyMKKuBtcAKYBWwDHgCWAwsHVGWDP75GLAIeBxYV0j0ZiYx1o3AzGLMBuYB2wLzB8s8YBtgi8GyOdW7Vgd4LhF4DHgYeAB4cPDP+wf/eXGuBpo1XdVuKmZV00N6oO84rOww7J9n5GtaKSwH7gbuGlHuJiUIA/maZlZvTgDMijMX2B3YY9ifewMb52xUha0mJQK3AH8c9uetQH/GdpnVghMAs/ZNBnYBDhgsuwP7k7rzTW858HueSwiuB64DnsnZKLOqcQJgNrGdgYOHlb1IA+usPFYDNwHXAFcDVwF3Zm2RWck5ATBb33TgEOCIwT8Pxr/sq+pJUjJwNXD54J+rsrbIrEScAFjTzQAOJT3wDx/8c2rWFplKH+nVwS+B3wBXkKYumjWSEwBrmsmkX/XHD5aDBv+dNU8fqVfgosFyzeC/M2sEJwDWBNsDLyU98F8EbJK3OVZSy4BLSMnA+cC9eZtjpuUEwOpoErAv8HLgZaSR+mbtugf4GXAucBlpVUSz2nACYHUxg/Qr/5WDf87J2xyrmSdIvQI/GfxzZd7mmHXPCYBV2XTgWOAU4NWkte/N1J4hDST8ASkhWJa3OWadcQJgVbMx6WF/KnAcno9vea0mjRn4PvBj0iJFZpXgBMCqYBJp8N5b8C99K6+hnoGzSD0Da/I2x2x8TgCszI4gPfRfR9r+1qwqFpNeEfwnac0Bs9JxAmBlszWpe/900pK7ZlV3B3A28C3gvsxtMXuWEwArgymk0ftvB04gdfmb1c064AJSIvBTPK3QMnMCYDnNBd4MvAeYn7ktZpEeA74NfBVYmLUl1lhOACxaL/Bi4AzSgD4vw2tN1g/8Cvga8L+kXgKzEE4ALMompC7+9wI7ZG6LWRndBXyB1DOwIm9TrAmcAJja9qRf+2fgkfxmrVgGfAf4DPBQ5raYmbXtSOBHpC7NARcXl7bLM8DXgd0wE3APgBWph7QBz4eBQzO3pUn6gN8BlwMPAF8Ufc77SIM1jwb2x7M1ogwA5wH/AlyatylmZuubArwVuIX8v5qaUIb2sf8McBJpeeQh2ws/9wXDPmcT4GTgn4FrB9uU+3tpQrkOeAMePGtmmW0AvJu0uEnuG2MTynWkX+FbjHNMohKAkWaRVm28iDSyPfd3VfeyEHgXKfk2MwvTS9qB7y7y3wjrXm4BPkHrMydyJQDDzSMlKr8O+o6aXO4jDbB1j4CZSQ09+G8n/42vzmUNaQ35/Vo7LOspQwIw3P7A9wZjyv291rncS0oEPC7DzAo1NLjvRvLf6OpcniIN4Nu2tcMyqrIlAEO2IvVkLBa2zwX+SHoV09vSUTEzG0MP8Ar84FeXh4D3kwbWdausCcCQTYG/AR4WttMFbiAl7WZmbTsRuIb8N7I6l6eBjwHTWzwmrSh7AjBkBqlHYLmwvS5ptsgJrR0SM2u63UlzjnPfuOpc1gFnkbY+LlpVEoAhc4Ez8TRCdbkYb69tZmOYR1qD3Cv3actFwD6tHZKOVC0BGLIbcK6w7S5p++EvAbNbPCZmVnMbAZ8kbT6S+wZVdHmsBG0Y3pa3tHhMulHVBGDIKcDjwhjaLYtK0Iaiy5PA/8FTB80a7eXUbxGfoXnzZ5agLUPlHGDz1g5J16qeAEBa6OgsYRztlq8BHyKNsM/dliLLbaSVJM2sQXYFfkH+G1BR5V7S9LkjBuP7xxK0aQB4FHhtKwekQHVIAIa8jDRDIvdxHCAteQywBynBvK0EbSqqXEQa+2NmNTYL+FfSu8DcN51uy2Okm/LIxXL+qQRtGyAtfpPjXWudEgCAzYDvd9jeoss/jGjb/sBnKdcri07LatL1tOm4R8PMKulNlOudeCdlHann4hTSPgQjvbsEbXyGtAxuLnVLAIa8BVg5Rrsiy3tHadsGwKmkX9JVH0T7yGAsZlYDOwAXkv/G0u1N6VOkh9tYXkH+qWT3AQeP08YIdU0AIP3ivoe8x3gd8Jpx2jiPNF6g6mNrfkZ3K1KaWUZTSDeiVeS/mXR6o72I9Gt/oh3PjixBnD+jHNOr6pwAAMwh/zoVK3luvMlYJgHHkQaAVvWV2zJSb5aXFTarkMOo7ojlh4GPA/NbjHV38q4v3wd8lLRschnUPQGA9ED6O/L2+DxBGkzbivmkgYOPZGxvN+WKNmI1s0ymkbrKc3eFd1LuIP3amNpGvHNJ+6LnavNyyrfeehMSgCGvJO/6FQ+QuvxbtQFpLMMfMra507KGdG8ZbeyNmWV2ONWcmvRr0kO03V/Qm5A2PMnV7idIPS1l06QEAOAg8g5uvQmY2UG7jyCtfNifse2dlD+Qf5yLmQ2aQVres0qjj4f2u9+3w5gnARdkbP/tjD8gMaemJQAAOwJ3ku98+DmdvyffnzRldE3G9rdb+oDPU+wmVmbWpgOp1q/+Iva7B/h0xhiuJG5Vv040MQGANADzCvKdF//YZfu3Jo0TyDmepd1yG3BAl3GbWZt6gQ9TnV8NT5BmJBSx3/2p5Os2/R/aG6OQQ1MTAEi/SH9CnnOjn2JWfdwU+Ahpvf7c120rZTXwQTxTwCzEfOAS8l/4rZSnSAOHilpdbG/y7R9/DtXYPKXJCQCk10PfI8858jSwZ0FxbERKmpdkiqXd8ivaGxBpZm16LdX4ZbCc9OCfVWDss4G7MsXzfarx8AcnAJCSgO+S51y5l7RWQVFmk14NLMsUTztlKfDGAmM3M2BjyrW73VhlBekd/5YFx99LvsVf/pvqPPzBCcCQSaSBpjnOmV8Mfn6RNiMl1VXYtvssUg+GmXXpINIc+dwX9XhlNSlBmSv6Dv45U1xnU62HPzgBGC5nEvBPopg2JyUCuVe+nKjcS5qabGYdmAT8PeVeRnQd8HW07/5eQ55Bf9+h+F9xEZwArC/XmIB+0v4UKtsC36Tc03/XkFbJrOJ1ZJbNHFI3Yu4LeLxyKZ3P42/VPNIMgujYfkJ1b1pOAJ5vEmkGR/R5tBj9hjr7AZdliK2dcgmwheoLMKuT/UjdZ7kv2rHKA6TlTNVr3/cCF2eI70qqvcCJE4DRTSOtOhl9Pl1KTDL5cvLvlDheuZ/0OtPMxlCWPc9HKytIo5Gj5sF/TBzPaOVmip25kIMTgLHNIc8mWR+OCI6U5HyINP029/1itPIM8Key6M0qakPS6PncF+hopZ80Bz5yb/CDiF/k6EHqsf+5E4DxzSP9Go08t9YCh0YEN2guaVBuWccHnEVKVswabx6p2zn3RTlauYb4DW82Jb4rcylpkaE6cAIwsT2JX3L3bopZCbMdBwK/KaDtinIdsJ0udLPyexHwOPkvxpFlMfB28uxxf3YH7e2mrKJe05WcALTmGNL01chz7bsRgY3QA7yTcq4o+ChwtC50s/I6g3Ku5X8usI0w7vG8rYX2FV3eFhBXJCcArTuD+PPtTSGRPd9WpK733PeXkaWPNG4hx48Ns3DTSUvL5r7wRpYH0c5bnshc4n+lfCEkslhOANrzFWLPuaXkXTP/NcDDo7QrdzkbjwuwmptDnqlI45V+0i+D2cK4W/FjYuO+HJgSElksJwDtmUKaqhd57p0bEdg4NiUNOi7bIMGr8HoBVlM7Ur4lfe8CXqwMukVvIjbuhaQlVevICUD75hA/8PQNIZGN7wjgVvLfh4aXe4BdlUGbRTsMWET+i2uorCWtJ16Gve03I3Yg5ErggJDI8nAC0Jl9id1oZxHl+LU7lbS+R/SAyPHKYjw40GriTZTr4roZ2EcacXvOITb+18eElY0TgM6dRuy5eHZMWC3ZjzyLJI1VnsFbC1vFvY88G9mMVvpJi4OUaZnbVxD7HXw5JqysnAB052vEnpOvjgmrJVNJYwPKdM/6hDJgM4XJwFfJfwENlceAl0kjbt9s4BHivoM/0IxRxk4AujMV+D1x5+XDlG/56ZdQrpkC36KeA3athjYGzif/RTNULgS2lkbcme8Q9x2sAHaLCSs7JwDd25PYPTm+GRNWW7YgzVbIff8aKr8kzV4wK635pHfsuS+WAdIN7D2Uc4GNw4ntZjw9JqxScAJQjHcTd372A0fFhNWWHuAvSKtl5r6fDQA3kW+RMrNxLSBNq8t9kQyQkpCyrm0/CbiRuO/iBzFhlYYTgOL8N3Hn6e+I2Ta4E7sDN5D/vjZAmsK7ozRaszbtRlpJL/fF0Q98lrS7YFm9l7jv4z7K935VzQlAcWYC9xJ3vr47JqyOlGmA4AN4rQAriX0px4Y+TwGvE8farc2J24WtDzgkJqxScQJQrCOJWzHvSdKiRGX2CtJyxrnvd4+R7r1m2RwIPEH+i+F2YA9xrEX4OnHfyaeDYiobJwDF+wJx5+1Xg2Lqxi7ALeS/7y0BDhXHajaqo4Bl5L8IfkI1RsceQNwvqdtoxpS/0TgBKN504pbxXgccFBNWVzYGfkj++99y4FhxrGbrOZHYaUKjlT7SIhllHOU/Ui9wJXE30CNiwiolJwAahxGXwF5LumbKroe0lW8fee+FK0j3ZDO5l5N/WswTwPHqQAt0OnHfzWeDYiorJwA6XyLuPH57UExFOIb0Tj7nPXE18FpxnNZwbwDWkPdEv5405bAqNgIeJea7uZNyLXWcgxMAnY2I2zXwkcHPq4r5wNXkvTf2AW9VB2rNdBr598/+JuXYwa8dnyDmu1lHORdTieYEQOsY4qbC/X1MSIWZRuwKn2PdB05TB2rN8irSFrq5TuqqboqxBWl6YsR39G9BMZWdEwC9M4k5p58iTZ2tmveR98dSH3CKPEprhONJW1PmOpmrvC3ml4n5jh6jeQv+jMUJgN5s4tb++GJQTEV7HXnHSq0GTpZHabV2OGmaSa6T+Emq2639AtJFGPE9vTUopipwAhDjT4k5t9cAOwTFVLRDybtI2krSKxuzth1MXPf1aOUu0oIbVRW1jvqvqcZUyChOAGL0Ar8l5hz/XlBMCjuQFirLdR9dTrOnBVsH9ib9+s510l5JNd/9DdmXmHeAfXg50JGcAMTZn5g58P2Dn1VVc4AryHc/XUq1vz8LtDNpCk6uk/WHVH8Vu4uI+a6+EBVQhTgBiPVvxJzrF0QFJLIhcDb57quPk3Y1NBvTtqQd5HKdpF+kGiuAjecEYr6rR0m7tdn6nADEmkXcIjjHBcWk0kPctODRyoOk68PseeYTu/Xn8NJPmjpTB1cR8529OSqginECEO/txJzzv4kKSOwD5NtW+G5gG32IViWbAL8nzwm5jjSiuA5eQsx3dg0e+DcWJwDxeoDriDn3XxwUk9oZ5Fsr4Bbce2iDpgC/IM+JWLelKy/HN8HcnADkcQwx5/4lQfFEeCP5Fli7BNhAH6KV3bfIcwKuBl4TEF+UY4j53n4aFE9VOQHI5zxiroEjowIKkHNztW8GxGcl9vfkOfFWkAbL1cnF6L+3PmCPqIAqyglAPrsR84v2wqiAgryUfNurfyQgPiuhN5BnIMpy4NiA+CIdQsx3d2ZUQBXmBCCvbxJzLRwWFVCQo4BlxN+P+/GA4sY5ijzr+y8hLY9ZN+ej/+5WAvOiAqowJwB5zSVm+fBzowIKdCDwBPH35dV4XFFj7AosJv4kexzYJyC+aPsR05PyiaB4qs4JQH7/l5h7ygFRAQXajzz7BzxJtZdetxZsBtxJ/MlV56Uof4z++3sM2DgqoIpzApDfJsQ8xP4nKqBguZZiv4e0hbnV0DTiNu8YXuq8GcUexPz6/0BUQDXgBKAcPoj+ulhH6tGso1ybsV0DTA+IzwL1AN8n/mRaARwdEF8u30D/HS4CNooKqAacAJTDDGKWCP5qVEAZvIg8swPOjgjO4vwN8SfRauDkiOAy2ZyYi/P9UQHVhBOA8vgQ+utjJenVZl29hDwDtv8qIjjTexHxq031AadEBJfRx9F/j/713z4nAOUR1QtQ97nsryb+Hr6WtLiZVdh84keUrgNOiwguow2J2TLZv/7b5wSgXCJ6AR6i/svavpn4vQMew1OPK2tD4GpiT5h+4F0RwWX2DvTf5aN4ME4nnACUS1QvwJuiAsroHcQv3nYV6VliFfM1Yk+UAeqzpe9EbkT/Xf51WDT14gSgfCJ6Aa4PiyavDxB/X//3kMisMG8h/iT5fyGR5Xcs+u/Sv/475wSgfDYi5lXk0VEBZfZZ4u/v7wiJzLq2H/FTR84BeiOCK4Gfo/8+6z6oSckJQDl9HP118+OwaPLqJS2CFHmPX0VaqthKbDZpNafIE+NqmvNrdRf07+CWk46jdcYJQDltRloXRHntrAN2iAoosxwLu91HvadcVtok4JfEnhB30KwT4gvov9MvhEVTT04Ayuvf0F8/nwmLJr8tgLuJvedfSHrWWMl8nNgT4Qlg55DIymEq+vW5+2jOLxgVJwDltT3pHFdeQ4to1qj1HYif6u1XlCXzQmANcSfAKuDwkMjK483ov1cvwdk9JwDl9kP019Hrw6IphyOJXS1wLWmvAiuBjUhd8VEHv5/6L/QzmsvRf7e+qLrnBKDcXoj+Oro4LJryeD2xawTchXcoLYVvE3fQB0hzeptmV/QX16/Coqk3JwDldwXaa6mfZr2eHPIxYp8F34gJy8ZyKrEH/JsxYZXO59B/tyeFRVNvTgDK75Xor6dPh0VTLt8h9pnw2piwbKR56AelDS+/I009aZqppAGPyu/2VtKWzdY9JwDl1wvcifaaepz67w8wmqnAdcQ9F5YA24ZEZs/qJb3nijrIT9Dcm99p6L/fvwiLpv6cAFTD+9FfV6eGRVMu25FmQ0Q9Hy7DUwND/S1xB7ePtCd1U12K9vtdAcyKCqYBnABUw0z0CwP9Miya8jkW/ZTL4eVvYsIqVhW7XfcHriSue+sm4PagzyqbjYETxZ9xD83ZyCTCDHTjKc4jPbSsGC8EFog/43zS6ppNtBuwZ9BnrQWOAK4J+rxCVC0BmEF6F9/EEa5mZlZetwEHkPaiqYSqvbf4PPDS3I0wMzMbYTPSvjAX5m5Iq6rUA3AYaf5sU3bdMzOzauknvQq4MndDWlGVBGA6cCOwU+6GmJmZjeMPpFcBa3M3ZCJVeQXwaeDk3I0wMzObwJakvWkuz92QiVShB+BQUtd/VZIVMzNrttWkGWt/zN2Q8ZT9ffoGpOV3/fA3M7Oq2BD4KiV/xpb9wfpR4JTcjTAzM2vTdsCjpKWJS6nMrwB2JA2mmJq7IWZmZh14CtgDeDB3Q0ZT5u6Jr+CHv5mZVdcmpFcBpVTWBODNwHG5G2FmZtalkynpq+wyvgKYRVpScYvcDTEzMyvAo8CuwLLcDRmujIMA/xl4Ue5GmJmZFWQj0syAUi0TXLYegL1JO8NNzt0QMzOzAvUB+wK35G7IkLKNAfgifvibmVn9TAb+NXcjhitTAnAacEzuRpiZmYm8mBINCCzLK4CNgNuBubkbYmZmJvQAaUDgytwNKcsgwI/hzX7MzKz+NiVtFnRZ7oaUoQdgG9Kv/xm5G2JmZhZgObAz8EjORpShB+DLwAtzN8LMzCzIBsBM4Kc5G5G7B2Bf0rS/Mg1GNDMzU+sn/fj9Xa4G5E4ALkK/5O9q4BukLhd7vpOBPYX1/xy4WVi/rW8m8C5R3V+lZCuZ1dw+wInC+m8CzhfWX2UbAaej34/mEtLMgMY5ERgIKG+PCqiCeoCH0X33z5AGvFic7dEdzxcExmFpWfTV6I7nw+T/EVhmZxDzjDohKqAyuRr9F/tbfIKPZ3+03/9P4kKxQU4A6uU8tNfoPnGhVE4vMc+pG8n0GjzXu/dXAgeJP2MA+MvBP210J4nr/5G4frO6+7G4/peK66+yfmKeIfsArxV/Rmn0ADegz6q+HRRPlf0G3fffB2weF4oNcg9AvWwJrEN3TLPPRa+A/0L/vLqdhiyDfyr6L/NpvKrgRGYBa9EdgyviQrFhnADUz1Xojula0sBRG9s80iBy9XPr9KiAhkS/ApgEfDzgcz5FGuBiY3sJ2ozzXGHdZk2ivJYmA8cK66+DB0nb1Kv9PWnL4Np6E/os6h70Uzfq4Ntoj8MuYZHYcO4BqJ+90F6r34gLpbKmAQvRP7/eHRRPuEnAbei/wMYMpuiCevrfnXGh2AhOAOrpHnTH1dMBW/MG9M+v+6lpL8Dp6L+8X+MTuRUHoD0On4kLxUZwAlBPX0B7ze4dF0qlXY7+OfZnYdEEmYI2gx0gjZQ9ICqgivs7tMfiyLhQbAQnAPV0LNpr9kNxoVTafmhnZQyQegE2iAoowrvRfmEDwNfDoqm+y9AdhycoxyZTTeUEoJ6mAEvQHduL40KpvG+hf56plvMON4WU0Si/rFWkqRo2sWmkJXpVx+KsuFBsFE4A6ks5H30lNX33LLAd2iWaB4B7CVgXIGIa4GnAfPFnnEmaqmETOxTthX6hsG6zJvuFsO5pwMHC+uvkPvQzJxYArxd/hlwPaSc4Zaa0Ei/6045PojsW/cBWcaHYKNwDUF9zSdeY6vj+fVwolbc16dmjfLbdhHhQu7oH4JXAHuLP+DJe9KcdxwjrvhF4VFi/WZM9DPxRWP8xwrrr5hFSz7PSXuj3a5FSrjU/QFryd4uwaKpP/f7/03Gh2BjcA1Bvn0N3fFeR7hHWms2Bp9A+4y5XBqDsATgSOExYP8AXgcfFn1Enh6F9/3+RsG4z015jU/E4gHYsAv5d/BkRz1GJH6PNjJYCs8OiqYf/D93xWIl/PZSBewDqbTraXrxPhEVSD3OAZWifdT9QNV7VA/AC4GWiuod8Flgs/oy6OUZY92WkLkQz01lJerWqcoyw7jp6krRKo9KrSYl9ZaiXrXwC2CQsmnpQ/3L467hQbBzuAai/D6M7xqtJ9wpr3aakRED5zPuXsGi6tAn6LhEvW9m+49Aekz3jQrFxOAGov/3RXssvjgulNj6K9pgsBTYuutGKVwCno/11/hTwVWH9dXWUsO5HgFuE9ZvZc24kDUBTOVpYd119ifTDV2VT4O1FV1p0AtALvKfgOkf6Gtovuq6UI0mH9hYwM71+tNPDDhXWXVdPkfYIUHovMav3duylaLtB1gDbhkVTH71oX8v8eVwoNgG/AmiG96E7zsso+YOmpOaRnlHKZ+BLimxw0Qf53QXXN9J/kzYWsvbsgfa1jHSxCjN7HuU1twmwm7D+unoQ+KH4M9TP2I5tC/ShzX72C4umXs5Ad0yexL8WysQ9AM3Qi3Z74NPjQqmVA9A+A9dS4M63Rd6434V2H/iLgBuE9deZcnWvK0jvJM0sTj/wW2H9XhGwM9cDlwjrnwz8aVGVFZUATAHeVlBdY/msuP46O0RY9xXCus1sbMprT3nPqDv1s+oM0jO3NF6HttvjD4i3RayxTYF16I7NQXGhWAv8CqA5DkN3rNfhxdY61UOaFq18Jr6qiIYW1QPwjoLqGctnSUFb+w5G945+OX4tY5bLtaSlgRV6gQNFddfdAGnXRqVC1gQo4sGwDQVPTRjhYeC/hPXXnXJO75WkQSlmFm8tcJWwfr8G6Nx3SQukqZwEbN1tJUUkAG9GO/jva6S5ldYZ9QBAM8tHeQ16IGDnVgNfF9Y/GThNWH/LbkX7HsoL/3Suh7Rxkur4eM3w8vEYgGY5Ht3xfiwwjjqaj3Zq/G1xoYzuCHTBDQA/iwullnZAd2zWkQYYWrk4AWiWWaQpgapjvl1cKLV0PtpnZFe9NN2+Anhzl//9RJRdKE2gXDjpNrwng1luS4A7hfXvK6y7CdTPsLd08x93kwBsALy2mw+fwKPAecL6m2AfYd3XCOs2s9Ypr0UnAN35KdrBgKfSxZoA3SQALwXmdPHfT+SbeIR5t5QX77XCus2sdcprUfkjogn6gLOE9W9GGgfSkW4SgDd28d9OZAD91opNoEwArhbWbWatcw9AuX2N9ExTUT6LR7UxsALdwIYL40KprTnojs8q0isgKx8PAmyeDYFn0BzzftJAQ+vOr9Bdl8uBjTppVKc9AK8Bpnf437bCg/+6pxwAeANem8GsLFaTlktX6AH2FtXdJMpn2gzgFZ38h50mAKd2+N+14gngXGH9TaHsuvMAQLNy8WuAcvsfYJGw/o6eyZ0kAJsCx3byYS36Nimjte4oB+94AKBZuXggYLmtAb4nrP8EOngN0EkC8HLSOyeV7wrrbhInAGbN4R6A8lMmAFOBk4X1P+tH6AYz3B4RQANsSMo4VQNOVLsLWvc8CLCZJqEbmL0aD/otyp3ors9z2m1Muzfy6Wh3/vu+sO4m2YsuFoeYwE2kkcFmVh7rgD+K6t4A2E1Ud9P8QFj3yaQBgS1rNwE4Ce3o/7YzGBvVHsK6VaONzaw7Nwnr3lNYd5Mon3Ft/0BvNwF4VZt/vx23ATcL628SZbb+e2HdZtY5ZQKwi7DuJrmRtIOuyivb+cvtJACTgBPba0tbzhbW3TS7CutW3mTMrHPKa9OvAIrzQ2HdJ5Ge1YU7Ct3ghQF8ghXpNjTHqB+YGRiHtc+DAJtrNrpj71d/xdkV7bP00FYb0k4PwMva+Lvt+j3abpEmmUJ6CCgsBJaK6jaz7iwGHhTVvTMwWVR309wG3CKsv+XpgGVJADz6vzg7op0BYGblpbpGNwAWiOpuIuUz7+Wt/sVWE4Dt0XbRK6dGNI0HAJo1l/IaVY4tahplArA3LSZrrSYAL+24KRO7AbhLWH/TKC9Svwc0KzflNeoEoDh3oO1RbWk6YKsJgHLxn58J624i5XQdT9M0KzcnANXxc2Hdx7fyl1pJACYDR3fXlnGdL6y7iVQX6VrgblHdZlaMO0mrAio4ASjWBcK6j6Wg6YBHoJuusLioRtqzlqI5VrdFGOscjwAAIABJREFUBmEd8zRAuxvN8X8yMogGmAwsQXe9HjRRA1rpAWipK6FDv0CXrTbRNqTtmhW8UZNZNaiu1dnA5qK6m6gPuFhY/4Sv7nMnAO7+L9ZOwrqdAJhVg7K3bmdh3U2kfAZO+OyeKAHYGHhhMW15ngHgQlHdTaVaAAicAJhVxR3Cuv0aqFgXkJ6FCocwweZ9EyUAh6Nb/ekG4FFR3U21nbBuJwBm1aC8VhcI626ih9DN3NiAlASMaaIE4Kji2vI87v4vnjI7dwJgVg3Ka9U9AMVTzgYY9xk+UQLg6X/VskBU72JgkahuMyvWw8BToroXiOptMuWzcNxn+HgJwDTgwGLb8qwlwNWiuptMlZ37179ZtajGAbgHoHi/AZaJ6j4EmDrW/zleAnAo6R2CwsWkKRBWnA2AuaK6nQCYVYvqmp2PdwUs2lrgElHdUxlnIP94CcARxbflWZcL626qbWlvd8d23Cmq18w0VD0Ak4F5orqbTPlMHPNZPlEPgMqvhXU3lbJrbqGwbjMr3n3CuhcI624q5TNxzJkAYyUAPejm/y/Hu8opLBDWvVBYt5kVb6Gwbo8DKN4NpGejQtsJwM7AHE1buBK//1dYIKx7obBuMyveQmHdC4R1N1UfcJ2o7i0YY5G4sRKAg0UNgTTi0Yq3QFTvGrxgk1nVPEgaXKbgHgCN8NcATgDqY4Go3vuAflHdZqaxDnhAVLcTAA3ls7GtBGDCbQQ7tA64RlR3080X1btQVK+ZaakGAnoWgMZV6H5sjfqjfrQEYANgL1EjbkK3QlWT9QBbiupeKKrXzLQWiurdmnTPsWItBW4R1b03MGXkvxwtAdgd2FDUCHf/a8xBt2iTcjqRmemort0NgZmiuptONQ5gKrDLyH85WgKwv6gB4ARARbUCILgHwKyqFgrr3lpYd5Mpn5H7jfwXoyUA+wob8Fth3U2mvBjdA2BWTQuFdTsB0MieAKh6ABYB94vqbrqthHU7ATCrpoXCupW9jk22EN3OqxMmAL2kwQIKN4nqNd3F2I/XADCrqkeAAVHd7gHQuVlU776MGLw5MgFYAGws+vDfi+o13cX4BLrFRMxMaw2wWFS3EwAd1Y/lmcA2w//FyARgd9EHg9f/V1JdjI+I6jWzGKpr2AmAjvJZucfw/zEyAdgDHb8C0FG9AnACYFZtqld4TgB0lM/K9X7kj0wAdhN9aB/wR1Hd5h4AMxudewCq52bSqrkKWXoA7gCeEdVtulkAHgBoVm3uAaieVcDdorrH7AHoAXYVfai7/3U2BaaJ6nYCYFZtqh6AjQaLaaiemXswbCbA8ARgHroDqprWYLCZsO6HhXWbmZ4yiZ8jrLvpVAMBN2FY783wBGBH0QeCpwAqzRLW7TEAZtWmvIZnC+tuOuVMgB2G/mF4ArCT8AP9CkBHeRH6FYBZtTkBqCblM/PZH/vDE4AdRvmLRXgKeEBUt2l7AJwAmFWb8hpW3nua7l5gpajuURMA1SuAO9EtR2m693ArgRWius0sxjLSioAK7gHQ6Ue3l8OorwBUCcBdonotUV2EqiVEzSzWElG9TgC07hXVO2oPwPaiD1PNZ7RE1Q2nummYWSxVMu9XAFphCcAcdFMA3QOg5R4AMxuP6lp2D4DWQlG9m5KmAz6bAMwXfRA4AVBzD4CZjcevAKpJ1QMAg8/8oQRgnvCD7hHWbe4BMLPxuQegmpQJwLbwXAKwrehD1uKpZGqqi9A9AGb14ASgmhYK616vB0D1CuAhdLsaWeIEwMzG41cA1bQEWCqqO+QVwIOieu05M0X1OgEwqwfVtexZAHqq1wDrvQKYK/qQ+0X1WjIJ3U6AHgNgVg+qa3k6w3aWM4mFonq3hucSgC1FH+IlgLWmC+t2AmBWD6pruQfdDxBLVD0AW8JzCcAWog/xbnJaygRgmbBuM4ujeo8MMENYt+leo28BKQGYjG49+SdE9VqivPiWC+s2szjKPT2UP0IMnhTVuzkwqXfwH3on+MudUjXeEmUC4I2AzOpBeS27B0BL9QydBMzuBbYSfQC4B0DNCYCZTcQJQHUpn6Fb9gKbCT/AA8m0lN1vqr2ozSyW8lr2KwAtZS/65r1oF3NYJKzbdNn3ALBKVLeZxXIPQHUpewBm9aJbSGYNHkimprr4VgH9orrNLNY6YLWobicAWstIS+orSBOAJ0m/JE1HdfH5/b9ZvaiuaScAWgPoVnKc2UvaG1jBAwD1VO/f/P7frF5U17THAOipnqUz1T0ApuUeADNrhXsAqkv1LHUCUHHuATCzVjgBqC5VD8CsXmAjUeV+BaA3RVSvewDM6kWV1E8W1WvPUf2YnjEZ3a/IXmB7Ud2WqJZw7sHHrqrmC+veFu/+ZuvbDN8r1FTX3PQe4DfAYaIPMDMzs/K5oheP4jQzM2ua6b14P2czM7OmmeYeADMzs+aZ3gtMzd0KMzMzCzWtF0/jMDMza5rJvejmkpuZmVk5Te4FNsjdCjMzMws1tYe0VWRv7paYmZlZmHW9eGUvMzOzpuntIe03bGZmZg3irn8zM7MG6sU9AGZmZk0z4ATAzMysefp7gb7crTAzM7NQa3uBNblbYWZmZqFW9wJrc7fCzMzMQvX5FYCZmVnz9PUCz+RuhZmZmYVa1QuszN0KMzMzC7WyF1iVuxVmZmYWyj0AZmZmDbRyMroegK8DnxLVbcmHgXcK6r0ceLugXtObD1wqqvsY4AFR3ab1HeAIQb1nAp8R1GvP+QhwuqDeVZPR9QAMAPeI6rbkSVG9PnY2mvuBe3M3wkrlCXyvqKqVvcByUeVzRPXac1SLOM0Q1WtmeUwX1et1ZPRmi+pd0QssEVW+mahee47q9Y3qZmFmeaiSeo8h09tcVO/iXmCpqHL3AOitENXrHgCzelFd06p7kD1H9Sxd2gssE1XuHgA9JwBm1gonANWlepYuVfcA9IjqtkTV/eZXAGb1orqm/QpAqweYJap7iTIBmAJsLKrbElX2PQ3oFdVtZrEmARuK6nYPgNZMYLKo7qXKQYDg1wBqqouvh5QEmFn1KV/pOQHQUo6lW9oLPC78AA8E1FJ2v/k1gFk9KK9lvwLQUv6IfrwXeEz4Ae4B0FJm3x4IaFYP7gGoLuUz9LFeYBHQL/oA9wBoOQEws4k4Aagu1TO0j8F1ANahW1LWPQBayotvI2HdZhZHmQD4FYCWKgF4AugfGumteg2wtaheS5QX30xh3WYWR7WULLgHQG2eqN5H4bmpXqoEYL6oXkuUCYDypmFmcVTzyAfQLUduyQtE9T4OzyUAj4g+xAmA1jp0SYDqpmFmsVTX8gpSEmA6C0T1PgLPJQCqPb63FdVrz1Et5OQeALN6UL1HVq4hY8kCUb33gz4BmEtahcp0FovqdQ+AWT2ormXVvceSWejGYj0A+gRgMh4IqOYEwMzG4wSgmlTv/wEehOcSgPuFH7S9sG7TXYR+BWBWD6pr2QmAljIBuA/0PQAAOwrrNvcAmNn4nABUU1gPwBJgueiDnABoqQbiuAfArB78CqCaFojqXQo8Betv+Xq36MN2ENVriSoBcA+AWT2oknnPAtBS9QDcNfQPvaP9y4K5B0DLYwDMbDzuAagmVQLw7I/9iARgJ9L+8qahugin4Q2BzKpuU2CKqG73AOj0AtuJ6h61B0D1CmBjdIGYNgv3FE6zapsrrFu1iZylV+fTRXWH9gAA7C2su+mcAJjZWLYS1u1XADp7CesetQfgTuEHKoNpOuVFqLx5mJmeMon3KwCd8ATgIeBp0Qe6B0DHPQBmNpYthXW7B0BH9cx8isGtgGH9BGAAuE30oU4AdJah2xHQCYBZtanGADyNbu0Y0z0zb2HYDo69I/7PP4o+dCfSqHLTUG3n7ATArNpUr/FU9xxLs69US+jfMvx/RCUAk4DdRXWb7mL0GACzalMl8U4AdPbk+c/mooybANyCjl8D6LgHwMxGo7qGHxbVa9pn5Xo/8qN6AMAzAZScAJjZaPwKoHqUz8pxewDuwzMBqkh1MW6GbhUxM9PaEN0ywE4AdPYU1buENNvvWSMTgH7gRtGH7yOq13QXYw8eB2BWVVuhW4b90Yn/inVI9WP5hpH/YrSBBs/7SwXZDC8JrKJ8H+djZlZNC4R1ewyAxguAOaK6n/fjPjIBADhMWHeTKbvjFgjrNjOdBcK6/QpA4whh3b8b+S+iE4DDhXU3mRMAMxtpgbBuJwAaymdkSz0AtwDPiBqgzG6abDGwWlS3XwGYVZPq2l0FLBXV3XSqBGAVcPvIfzlaAtAH3CxqxJ7AJqK6m2wA3aAcJwBm1bRAVK9//WvMRLdg3h9Iz/b1jLXa0NWiRkwCDhHV3XQPTfxXOvICUb1mprVAVK8HAGochm4FwCtH+5fRCQB4HIDKQlG926I7Kc1MYxIwT1T3vaJ6m075bBz1mT7Wjf0qYUOcAGioLsoN8IqAZlUzD90iXk4ANJTPxlGf6WMlAHcBT4gacggwWVR3k90nrNvjAMyqZYGw7oXCuptqCvBCUd2PM0bSNlYCMABcI2rMDLwqoIIyK18grNvMirdAWLd7AIq3PzBdVPdvx/o/xnu369cA1aK8KD0Q0KxaFgjrXiisu6nC3//D+AnArwUNGXKUsO6muh9YJ6p7J1G9Zqaxs6jePuBBUd1Npnwmjvksn6gHQLW4zHF4l7mirUU3PWcXUb1mpqG6Zh9glPnk1pUpwDGiulcB1471f46XAKwCriu8OcmmwMGiuptsoajeXUX1mpmGqtfO7/+LdwTpmagw7g/5ieZ3X1ZsW9bzUmHdTaW6OGcCm4vqNrNizUW34qoTgOIpn4WXj/d/TpQAjPsfd8kJQPEWCuv2awCzalBeqwuFdTeV8lk47o/4iRKA36B737MvXmCmaAuFdTsBMKsG5bXqHoBizQP2ENW9hglW9Z0oAViObj2AHuAEUd1Npbw4PQ7ArBrcA1AdJ5KehQpXAivH+wutrPF+UTFtGZVfAxTrDmHdqmlFZlYsZQLwvC1lrSvKZ2Ahz+7DSCsDKspivCxw0ZaiOVa+8Kthe3TXqxeEqoZ70Bx/1fLwTTUZ3f16gBaWFm6lB+AaYFnrMbVlFp4OWDTVg3p7vHaDWdltSNrBU+FWUb1NdTi66X9LgN9N9JdaSQD6gEu6bs7YThTW3USqi3QysIOobjMrxk6krYAV3AtYLOWz7yJaWBm21X3eleMAXiasu4mUF+lewrrNrHt7C+u+TVh3E50srPuXrfylVhOAn3fRkInsi0eYF0l5kSpvLmbWPeU16lcAxdkV3Q+qAeD8Vv5iqwnAfcAtHTdnYq8T1t00TgDMmss9ANXwBmHdN9Lihk2tJgAA53bWlpacKqy7ae4ibQyksI+oXjMrhuoaXY3XACjSKcK6f9bqX2wnAVC+BtgL2F1Yf5OsBe4W1b0taV8AMyufOaR9ABTuQLfdeNOon3ctP6vbSQCuRDsP1L0AxVF11fXggYBmZaXsoXP3f3FeL6z7ccbZ/nekdhKAdbQ4sKBDynciTaO8WP0awKycnABUg/LH7s+B/lb/cjsJAMBP2vz77dgFDzIrigcCmjWPsnfOawAUYz/SWg0qP23nL7ebAJwPrGjzv2mHXwMU4w/Cup0AmJWTsgfgJmHdTaLs6V4OXCisH4Afolu7+C514xtiQ9JWkIpjtJz2E0eL470AmmkysArNcX8GLwNelLvQXZ//3W5jOrmR/08H/02rdgD2F9bfFKvRvQaYgbYLy8zatwswVVT3H9FNLW6Sg9Eup972s7mTBODnpAeMyhuFdTfJDcK6DxLWbWbtU16TE24qYy35E2Hdq+hgkH4nCcBTaPcGeCupC9u683th3RNuM2lmoZTXpPJe0hQbAqcJ67+A9Hq2LZ2+yz2nw/+uFZsBrxTW3xQ3Cut2D4BZuSivSeW9pCleS3q2qSifyc8zg5RtqAYzKHsYmmI2uuPzDO6lKSsPAmyeqaTXsopj3o9uz/omuQTddbmc9ExuW6c9ACtoY73hDhwL7CisvwkWA/eL6t4QTwc0K4v9gA1Edd8DLBPV3RQ7AEcL6/8RHU7P72Y613918d9OpAd4u7D+pvBrALP6c/d/uZ1BeqapdPws7iYBOB94sov/fiLvwHNPu+UEwKz+PACwvCYDbxbWvwj4Zaf/cTcJwFrSokAqWwEnC+tvAuXF6wTArBzcA1BerwS2FtZ/DhnXaDgc3cCGAbRbEDeBckDYOjw4qIw8CLBZZpEG6qmO+bZxodTSBWifkdl/iN2K9iGzXVwotdND2sJZdXyOiwvFWuQEoFlegu54PxoYRx3NB/rQHZ+bu21gEWu6f7uAOsbSiwcDdmMAuEpY/6HCus1sYocJ61beO5rgncAkYf3f6raCIhKA75CyHJU/Q7fGdRNcLaz7SGHdZjaxo4R1K+8ddbchKQFQ6QO+120lRSQAjwK/KKCesWyJ9wfohjKLPwzP1DDLZQppgxkV9wB07i2kgewqP6dEr2hei+49x9C7DuU8yjrbBO17qOyDUGw9HgPQHIehO9Z9wEZxodRKD2kHReUzsZDl8ova1/0nwMMF1TWaPYCXCuuvs6dIAzVVlF2QZjY25bV3Mx1sLmMAvBzYTVj/I8B5RVRUVALQB/xHQXWN5f3i+utM2ZXncQBmeSivPXf/d079rDqTjHP/x6Ke8uDu5s79KbpjspjiEknrnl8BNMMkYAm6Y+3ZV505EO0zcC2wTVGNLfLG/QD6hXveJ66/rpTZ/CzSKxozi7MPMFNYv3sAOvM34vrPBR4Sf0bHTkSf/WwXFk199AJL0R2X98SFYhNwD0Az/CW647wE9+p1YgHpGaV8Br6kyAYXfZB/AdxVcJ3DTQb+Qlh/XfUD1wrr9zgAs1jKa+5q0j3D2vNXpGeUyp10sfHPaIpOAPqBLxRc50jvRNv1VVdXCus+Gk/TNIvSixcAKptZpB1slT5PBRKzGWjXnx8A/jYsmvo4Du0x2SsuFBuHXwHU3wFor+UXxYVSGx9De0wWAdOLbrTiPc8K4CuCeof7IO4FaNdvgdXC+gt9N2VmY1Jea6vxAMB2zSR1/yv9G7Cy6EpVAz2+BDwjqhvSF+4ZAe1ZCVwjrP94Yd1m9hzltXYVsEpYfx19gPQKQGU18FVh/RJfR9slshSYHRZNPXwS3fFYBUyLC8XG4FcA9Tad9ONKdYw/ERZJPcwhrbaqfNbJHv7KqR7/gnbAwqZ4dcB2XSqseypwuLB+M4NjSDvNqVwirLuOPgRsLKx/APiisH6pc9FmRsuBLcKiqb6ppF/qquPx6bhQbAzuAai3z6M7vqvw1uvt2Io05k35jPtxWDQCx6D9cgZIPQ3WusvQHYsbAuOw0TkBqLdb0B3fiwPjqIMvon++HREWjcjVaL+gVRS4NnID/AO6Y9EPbB0Xio3CCUB9bUO6xlTH92NxoVTeXNLAauWzTTloG4hZ7lG9MNBU0nsYa82lwrp7gGOF9Zs12UvQLrh1qbDuuvkY+kHPnxHXH2IysBBtpvQMsG1QPFWnHgfwn3Gh2CjcA1BfZ6M7tivQDi6skwWkqXnKZ9rdpB0fa+FdaL+sAeCbYdFU3yXojsOTaNfDtvE5AainKWi3/70oLpTK+w7659k7w6IJMIWU0Si/sHXAC6MCqriPoj0WR8eFYiM4Aain49Fesx+MC6XSDiA9a5TH4j5gg4hgorZ8XAv8X/Fn9JLGG3hTmomdL67/FeL6zZrm5eL61feEOughPWPUz81/BNaIPyPcJOA2tJnTAPD6qIAqrAd4CN0xUG4JbeNzD0A93YPuuD6Afzi14k3on19hv/5zOA39F/gAgl2TauhbaI/D7nGh2DBOAOpnH7TX6tfjQqms6aSHs/r59a6ogCDuFcCQs0kLWSjNw0sEt8KvAcyqQX0tuft/Yh9GP9PsPtIPs1p7HfosaiWeFjiRWaSxGapj8Ju4UGwY9wDUz7Xojuka0r4qNrb56Jf8HQDeFhRPVj2kJWPVX+Z3owKqsF+j+/7XkdbKtlhOAOplLtrV/y6JC6WyzkH/vLqNDNOno18BQAr24wGf80ZqsI6ymLLrrxc4SVi/WRO8Au0APXf/j+9wUq+12keAvoDPKY2r0GdV15MnyamK/dB+/+fGhWKD3ANQLxegvUb3jgulcnrRvn4ZKtfSwFkYJ6D/Ygeo2YpKBVNPB1wDzA6LxsAJQJ1shnacjqf/je/PiXlGHR8V0Eg5l2y9cLCcIP6cLwH7Ak+LP6eqniS9Z1SYQtob4A+i+u35Zgrr/iCwTFi/rW9ftPfoJ4H/J6y/yjYC/jTgc35JxmWYc2d/uwG/Jz0ozMzMmqKPlOSpp8aPKff78VuBMzO3wczMLNqXyfjwh/w9AJDmo99Bet9lZmZWd4uBnUmvYbIpw37Dz5D2p/eUMTMza4K/Bq7I3Ygy9ABASkRuAPbK3RAzMzOhW0jv/rPP+889BmDIOuAvczfCzMxM7K8owcMfypMAAPwKLxxjZmb19SMyTvsbqSyvAIbsBNxMjfdDNjOzRloN7AHcnbshQ8owCHC4xaSdqQ7L3RAzM7MC/Qvwg9yNGK5sPQCQEoDb8E5yZmZWD48Au1CyFWnLNAZgyDI8INDMzOrjvZTs4Q/l7AEY8iPgVbkbYWZm1oWfAS/P3YjRlDkBmEuaL6nc3MTMzEzlKWB30q6rpVO2QYDDPT1YTs7dEDMzsw78BXBp7kaMpcw9AJDGKFwKHJm5HWZmZu24HDgGGMjcjjGVPQGAtGHC74GpuRtiZmbWgtXAfqQdb0urzK8AhjxJSlRenLshZmZmLfg4aSB7qVWhBwBgMnAtaQMFMzOzsroJOBBYm7shEynjOgCj6QPeRdo0yMzMrIz6gT+jAg9/qMYrgCEPAbOAQ3I3xMzMbBSfA/4jdyNaVZVXAEOmA9cDu+ZuiJmZ2TC3krr+V+ZuSKuqlgAA7A9cSdyOgTdT8pGcQhsDJ4o/417gOvFnNMkM4CRR3ecBK0R1N9ELgQXizzgfWC7+jLLag7QIT4TVwKHADUGf12gfIs2tjCjrgJfGhFVKl6D9flcCs8Oiqb/t0R2rFwTGUXdzgFVor63S7DufwfGksWNRz4n3x4RlkAYvXkzcwX2SdGNtojei/369+VNxnABUwwfRX1enhEVTLguAJ4h7PlxKdQbU18Y2xB7kG0ljEJpmQ2AR2u/2dnwBFcUJQPn1AnehvaYeI+41aZlMI40Ti3ouLAbmh0Rmz/M64g70APCdmLBK57Pov9tS7pZVQU4Ayu816K+nT4VFUx49wPeIfSa8OiQyG9N/EHvAPxoTVqnsQprfqvxeLwuLpt6cAJTfb9FeS/3ATmHRlMcniH0WnBkSlY1rBqkLOeqg9wNvDomsXC5F/916jYfuOQEot8PRX0dNHPz3J+h/pAwvd5JmSVkJHACsIe7gr6Z5exOchv57PScsmvpyAlBuP0J/HZ0aFk05HA08Q9z9fw1wcEhk1rK/I+4EGCDNDNglJLJy2BB4HO132gfsEBVQTTkBKK+dSNOKldfQItK12hS7kQbiRd77PxQSmbVlEnAhsSfC3cAWEcGVxOfQf6dfCoumnpwAlNdX0V8/TRr8txVpIbHIe/55eMZSac0mPZQjT4hraM70wJ3R/4JZTlokxTrjBKCcNicteqW8dvpoznol00grwkbe6xfie1Pp7UNarjTyxPgp1dpYqRs/Rf99/l1YNPXjBKCc/gH9dfPDsGjy6gX+l9h7/CrSMvRWAW8i9uQYAP45JLL8XoT+u3yMNLvD2ucEoHw2Qr+Y1gBwZFRAmX2R+Pv72yICs+J8hfiTpCnrQd+A/rv8QFg09eIEoHz+Fv310pQNtT5M/H3d45IqaApwBbEnSj/w7ojgMnsr+u9yEemXk7XHCUC5zEA/e2aANA++7t5D/MP/tzRzSeVa2Bp4mPgk4PSI4DLagJjv1b0A7XMCUC4Rv1gfJP3gqbO3oB+APLI8StpzxirsMGIXCRogjcZ9fURwGUWsu+BegPY5ASiPGaTxLOrrpO7z0l8DrCX2Hr4WOCoiONP7a2JPngFS0vGyiOAymU2asqf+Ht0L0B4nAOUR8et/BfWemnYCsav8DZW/iAjO4pxN/Em0kjRqvq7ORP8duhegPU4AyiHq1/+/RQWUwbGk6XfR9+3vRgRnsaYCvyH+ZFpBfafn7EbMBhzuBWidE4By+BD662Id9V2O/BDgaeLv11fTnIXdGmcz4A7iT6qlpA2L6ihiQY7H8M5brXICkN8mxIz8/0FUQMH2IX59/wGat7R7I+1C2sgn+uR6HNgvIL5o+xLTC/DJqIAqzglAfv+E/nrop54r0+1PzKJJI8si0mZN1gBHkmdgyRLSrIS6+Tn6724lMD8qoApzApDXNsQsRf6TqIACvZA8P85WAYcHxGclcioxv1xHluXAcQHxRTqYmO/u61EBVZgTgLy+Rcy18MKogIIcDTxF/P24HzgtID4roYi57KOVZ4BXBcQX6SL031sfsGdUQBXlBCCfvUnnqPo6OD8qoCAno98pcazy4YD4rMRy7BkwAKwGXhcQX5TDiPnefhYVUEU5AcjnQmKugSOiAgpwKvELtQ2VbwTEZyU3hbgLd2TpA96uDzHMZcR8b3V7hVIkJwB5vJiYc//iqIACvIn4Ff6GygXAZH2IVgUbAzeS50Tspz6rTh1HzHd2A2lPcHs+JwDxeoHriTn3j4kJSe7dxK/tP1RuBjbVh2hVsg1pHmiOE7Kf+ix2cyUx39lbowKqGCcA8U4n5pz/dVRAYjm29B0qdwFz9SFaFW0LLCTfyflFqv/L9hhivqvHgJkxIVWKE4BYs4hZ9GeA9JqhyiaR7nG57q8P4HPYJrAT8Aj5TtL/pfpLUUaNqfjXqIAqxAlArKhBxOdFBSQyA/gx+e6rj5OWLjeb0F7kWZBiqFwNbCmPUmcfYt7v9VHP1RW74QQgzgHETPtbR7WnBlB7AAAOxklEQVTP862Aa8h3P11Ctb8/y+Ag8ixMMVTuodoZ6/eI+Z6uofqvTYrkBCBGL3HjXc4Kiklhd+Be8t1Hl1G/RZMsyGHE7Hk/VllMdUf9LiBuueU6TaXslhOAGGcQc26vJh3TKnox6dd3rvvnStIKg2YdO548e1IPvwG8SR6lxr8S8x09AcwJiqnsnADozSZuw5rPB8VUtLeS7l0575snyaO0Rngl+RasGCBNE/wE0COOs2hbEPca5StBMZWdEwC9rxNzTi8DNg+KqSg9pHtVjn1WhkofcIo4TmuY08i3cMVQOQuYpg60YB8n5rvpxysEghMAtRcT93D7u6CYijKduLE/Y5V1eHMfE3kD+datHio3UK13ghsBjxLz3dxFmm7UZE4AdDYmbkDbI6Rrpyq2Ba4l772xDy8QZmIvI++YgAHSFMUT1YEW6B3EfTdfDIqprJwA6Pw7cefx22JCKsRJpAHLOe+Jq4HXqAM1A3gR8DR5T/h+4FNUYwpcD3FTptYBR8WEVUpOADReRFzX/2+pxnifHuBD5H81ugI4QRyr2XqOJA3SyXniD5C2x63Ckrj7E3ejuIfmvgpwAlC8GaTXSxHn7jrSGiRltwlp1dLc97+nqf4SyVZRB5CmoOW+CO4krV5Ydl8j7jv5bFBMZeMEoHhfJu68/fegmLqxN3EJ0XhlMXCIOFazce0OPET+i+Fp4PXiWLu1GXFLLK8DDo8Jq1ScABTrGOJ6rqqwnsWfkHdxtKHyKGnJcbPsdiXtNJX7ohggLb4zVRtuV95D3HdxP2nRliZxAlCcWcB9xJ2v74oJqyPTiB0EOdF1vbM2XLP2bEfqis99cQwAtwD7asPt2CTSVMao7+KHMWGVhhOA4vyIuPP0etK1UUZ7AL8n/31tgDQNcwdtuGad2Qa4ifwXyQBpquL7KOdo4sOIXSnsjJiwSsEJQDH+D3HnZz9waExYbekB3k/cnh4Tld8Dc6URm3VpI+Dn5L9YhspFlPOi+Q/ivoOVpF8xTeAEoHt7E7vWx9diwmrLlsB55L9/DZVfAJtKIzYryGTS2vS5L5qhsoi0n0GZbAo8SNx3cDNpqdK6cwLQnenAH4k7Lx+ifNN4X0XcZketlG8CU6QRmwm8j/yLZAwvZ1Gu+fEvIzb+JmwY5ASgO98g9pwsU2I+jbSSZu771FAZ2gTNrLL+hPK8Qxsg/brZXxpxe/6b2PjfGBNWNk4AOvdmYs/F78aE1ZIDgdvIf38aKqso/7Rms5YcCjxO/otqqKwlZfpl6A3YDHiM2BvLgSGR5eEEoDP7kZaUjToPF1GOrX6nkX5l597kbHh5kmYv5201tANwO/kvruHlbsqxhe6fEBv3fcAWIZHFcwLQvi2JX8fjdSGRje8oyvWrf+ietIsyaLNc5gCXk/8iG176SWMDcq9AFr2u+K+BDUIii+UEoD1TgMuIPfd+EhLZ2GYCZxI7FbeVciX1TczNgNTldjb5L7aR5WHgtcK4J7I18VuKfjkkslhOANpzJrHn3BLSeiG5nEpaRjf3/WZk+S7lXsHUrFBnUK73bkPlXGC+MO7xRA/CGgBOD4ksjhOA1r2b+PMt1yDUrYH/abGNkWUtaUths8Y5mnJm40tJCUqvLvQxfbeD9nZTnqFeA46cALTmWOIT8O+ERLa+XuDPKcfW5SPLI6Rt1c0aay7wW/JfjKOV64m/QDcifrDkMuqzs5gTgIntReqKjzzH7gI2iQhumINJ79Vz30dGK7+mnCuUmoWbDHyK/BflWOVcYIEq+FEcCKwuOIaJykOkDZ2qzgnA+F5AGu8SeW6tIT2Mo8wjDewt2yC/oXIm9RyAa9aV04idi9xOWUlKUjaSRb++vw2IaWS5hepvH+wEYGybkWfa299EBEdaxvhDwNMBMXVSVgHvkEVvVgP7kubC5r5YxyoPAm9Bv8tgL/DLDPFdRTkWSOqUE4DRTQd+Q/z5dAn6sTQ9wCnAwgzxtVruA14oit+sVmYDF5D/oh2vXIN+C9NtyLMpybmk1zJV5ATg+SYBPyb+PHqcNPpe6QDS+/Tc94PxynlUv2fNLNQk4COUc6rgUFkHfAvtu/NXkOdd5ndJx6BqnACsbzLx+00MkM7Zk4RxLSDNKijre/4B0jieD5FnNpFZLRxI+ZYQHlnWkAb2qBY4+adMcX2f6vUEOAF4ziTge+Q5d/5BFNM80j4eZdpgbLRyD/oeQrNGKNs2nWOV1aREoOhuz17gZ5liOodqJQFOAJJJwH+R55y5gOJ7jzYnDcJdmSmmdspZxA0WNmuMVwNPkP8Cn6gsJyUsWxYY+yzgzkzx/IC0ZnwVOAFIxyrXqne3k9baL8oc0m59T2WKp52yBHhDgbGb2QhbAueT/2JvpTxN+tVS1A1xV/KtaPZDqpEEND0BmEL8xlJD5Slgj4Li2Jj0/nxppljaLReTd48Ds8boBT5I/GI5nZbFwEcpJhF4LfkGPv2YNJ2szJqcAMwg36uifuBVBcQwC/gY8SsVdlpWAx/AA/3Mwu0J3ET+m0Cr5WnSGIGduoz7HzPGcDXl3rK0qQnAHPLM8x8q3Q76W0DqLavKL/4B4FZg/y7jNrMuTAc+B/SR/4bQallL2hL5gA5j7gV+nrH9dwA7dth2tSYmADuT1trPdT6cS+e/gA8kTVOs0vXbB3yW8veGmTXGvsB15L85tFt+TVrFrN1R0xuTNivK1e4ngSPabHOEpiUAB5MW3Ml1HlxH+yPee4DjSIlD7uuv3XITcFCb8ZpZgMmkgUOryH+jaLfcCbyPNOWxVZuTb2bAwOD3fGob7Y3QpATgVeTdO+MeYKs22rsBaRntmzO2uZtz/RN4Ex+z0tsVuJz8N41OyiOk96nbthjrjsBjGdvbT3p3W5ZBUE1IAHpIiW7ObvNFwC4ttnc74JPAoxnb2025jPSaxcwqoof0a+NJ8t9AOinrgItIrwcmmn53EGntgZztvZhyDA6sewIwh/zTYFcCh03Qzkmkbv5zSGNecl9PnZSlpF65siS3ZtamrUlz2HPfTLopj5IWFhpvjvXLyH+jvR84ZJw2RqhzAnAAqds95zHuY/zpfjuReoSq+mt/qJwLzB8nTjOrkFNI3eu5byzdlH7SL+03ABuOEuMZJWjjM6RfTbnUNQE4g3Kse/Hno7RtKvBG4FeUe3OeVsrDpLU2zKxmNgU+T/5fykWUJwZjGbnH+CdK0LYB0kZCm413METqlgBsQb5lfUeWj45o20HAF6jua7bh5RlSz8XG4x4NM6u8XUgbluS+6RRV7iO9IhialvfJErRpgDQ48S2tHJAC1SkBOIW8U/yGl48PtmkPUpJ5RwnaVFQ5F9ihheNhZjXycuBe8t+Aiiz3kpKBb5egLcNvsHNbOyRdq0MCsCXlGrfyTdJD/9YStKXIcivw0tYOiZnV0XTSlKpcm+woy6IStGGoLCG9x1aregJwCuU6blUfzDdaeZI0TqVK21ybmdDWwDeo1pKkVSy/BPZr8Zh0oqoJwB7kXd65CWUNaczCrBaPiZk1zG7k21GtKWUdaX74di0ek3ZULQHYhrRBlBNPbbmItHmYmdmETqCaewtUqawgDVhsdy358VQlAdiYtKvjSmF7XeBa4PgWj4mZ2bN6SO9kbyP/jazO5VHSOIyZrR2WcZU9AZgFfIS8yzc3ofyRNJ+/p7XDYmY2usnA6aSV7nLf2OpcnibNYNiutcMyqrImAAuo3n73VSwLgbfT/u6aZmbjGtrN7G7y3+jqXNYC/0Va+rZdZUsADgTOph6LT5W53Eca2T+1tcNiZtaZoUTgLvLf+OpebiHNQd+xlQNDORKA+aSH0fVB31GTix/8ZpbFBsC7qN9iQmUt15Fu9luOc0xyJQCzSUnhRVR/PfwqlLuBd5KuQTOzbHpJqwpeS/4bYxNKH+nX9WdJuyBuOuxYRCUAM0nH/HPA70hTG3N/L00o15MSLS/iY13zCFErUg9padEPA0dmbkuTrANuAC4DHiI9lBX+GpgHHA3siweaReknrc3xL8AVmdtiZjahw4Af4AVeXFw6LatIiyTtgpmAewBMbS5pDfz3kt4Tm9n4lgHfAT4NPJy5LVZjTgAsysak+cnvpfUR7WZNcidprf5vk1ZINJNyAmDReoEXk3oFXgVMydscs6z6gV8BXwP+lzSewyyEEwDLaWvSiOY/B7bN3BazSI8AZwFfIc3lNwvnBMDKYDJpOtvbgZPwFCerp7XAecB/DP7Zl7c51nROAKxsZgOvI/UK7JO5LWZFuI30Xv/bpE2QzErBCYCV2SHAm4FTgc0yt8WsHYuAc4D/BK7O3BazUTkBsCqYBLyINF7gVaQZBWZls4q0YM9/AheQuvzNSssJgFXNDOCVpF6BE/AmKJbXKuBC0q/9n+Dpe1YhTgCsyqYBxwGn4J4Bi7MKuJi00uWPgafyNsesM04ArC6mASeSegdOAjbP2xyrmcdJI/d/QvrFvypvc8y65wTA6qgX2I+0W93LgP3xuW7t+yNwLvBL4FI8bc9qxjdFa4JtSb0DxwPHArPyNsdKajGpa/8i0iC+B/I2x0zLCYA1zSTgQFIycDxwKF6OuKnWAFeSHvgXAdfjpXitQZwAWNNNJ70iOJw0oPBw0ngCq5+1wE2kLv3fAJfhAXzWYE4AzNa3IXAQcCRpIaKDgS2ytsg69RhpEZ6rgCuAa0i/+s0MJwBmrdie9Krg4MGyN15/oGxWkX7dX81zD/17srbIrOScAJi1bxKwK7A7sAdwACkx8NTDGE8BfyC9s7+FNFr/WmB1zkaZVY0TALPizCIlBLsP+3MfnBh06ingTtID/pZhf94LDGRsl1ktOAEw05sL7DhYdhj2z9sDMzO2qwyWAncDdw37c6g8krFdZrXnBMAsr02A+cB2wLzBf94W2ArYmtR7sDnptUOVrCPtiPc48OhguQ94kDS//v7B8nSuBpo1nRMAs/LrISUBWwz+OWuwzBwsQ/+8KbAlKamYMVg2GCy9g/UMldEMDCv9pBHza4AVwHLSw/oxYBmwhPTrfemwf15CeuAvGizupjcrsf8fVCS0/zs0NhYAAAAASUVORK5CYII=;" vertex="1" parent="1">
          <mxGeometry x="290" y="396" width="72" height="72" as="geometry" />
        </mxCell>
      </root>
    </mxGraphModel>
  </diagram>
  <diagram id="hfiCdxtQrhgMUFdW4mSB" name="Entrantes">
    <mxGraphModel dx="1434" dy="770" grid="1" gridSize="10" guides="1" tooltips="1" connect="1" arrows="1" fold="1" page="1" pageScale="1" pageWidth="1169" pageHeight="1654" math="0" shadow="0">
      <root>
        <mxCell id="0" />
        <mxCell id="1" parent="0" />
        <mxCell id="WuQe7vz-Clt-ZLB3GArU-68" value="" style="endArrow=none;html=1;rounded=0;strokeWidth=4;strokeColor=#FFAD66;endFill=0;startArrow=classic;startFill=1;" edge="1" parent="1">
          <mxGeometry width="50" height="50" relative="1" as="geometry">
            <mxPoint x="450" y="440" as="sourcePoint" />
            <mxPoint x="260" y="440" as="targetPoint" />
          </mxGeometry>
        </mxCell>
        <mxCell id="WuQe7vz-Clt-ZLB3GArU-69" value="" style="group" vertex="1" connectable="0" parent="1">
          <mxGeometry x="220" y="330" width="230" height="90" as="geometry" />
        </mxCell>
        <mxCell id="WuQe7vz-Clt-ZLB3GArU-70" value="" style="rounded=0;whiteSpace=wrap;html=1;" vertex="1" parent="WuQe7vz-Clt-ZLB3GArU-69">
          <mxGeometry y="10" width="230" height="60" as="geometry" />
        </mxCell>
        <mxCell id="WuQe7vz-Clt-ZLB3GArU-71" value="" style="rounded=0;whiteSpace=wrap;html=1;" vertex="1" parent="WuQe7vz-Clt-ZLB3GArU-69">
          <mxGeometry y="10" width="120" height="60" as="geometry" />
        </mxCell>
        <mxCell id="WuQe7vz-Clt-ZLB3GArU-72" value="" style="group" vertex="1" connectable="0" parent="WuQe7vz-Clt-ZLB3GArU-69">
          <mxGeometry x="105" y="60" width="70" height="30" as="geometry" />
        </mxCell>
        <mxCell id="WuQe7vz-Clt-ZLB3GArU-73" value="" style="rounded=1;whiteSpace=wrap;html=1;" vertex="1" parent="WuQe7vz-Clt-ZLB3GArU-72">
          <mxGeometry y="5" width="70" height="20" as="geometry" />
        </mxCell>
        <mxCell id="WuQe7vz-Clt-ZLB3GArU-74" value="Package" style="text;html=1;strokeColor=none;fillColor=none;align=center;verticalAlign=middle;whiteSpace=wrap;rounded=0;" vertex="1" parent="WuQe7vz-Clt-ZLB3GArU-72">
          <mxGeometry x="5" width="60" height="30" as="geometry" />
        </mxCell>
        <mxCell id="WuQe7vz-Clt-ZLB3GArU-78" value="" style="group" vertex="1" connectable="0" parent="WuQe7vz-Clt-ZLB3GArU-69">
          <mxGeometry x="25" y="30" width="69" height="30" as="geometry" />
        </mxCell>
        <mxCell id="WuQe7vz-Clt-ZLB3GArU-79" value="" style="rounded=1;whiteSpace=wrap;html=1;" vertex="1" parent="WuQe7vz-Clt-ZLB3GArU-78">
          <mxGeometry y="5" width="70" height="20" as="geometry" />
        </mxCell>
        <mxCell id="WuQe7vz-Clt-ZLB3GArU-80" value="70.70.70.70" style="text;html=1;strokeColor=none;fillColor=none;align=center;verticalAlign=middle;whiteSpace=wrap;rounded=0;" vertex="1" parent="WuQe7vz-Clt-ZLB3GArU-78">
          <mxGeometry x="5" width="59" height="30" as="geometry" />
        </mxCell>
        <mxCell id="yFc70cK3wPxbptLiUGwS-1" value="" style="group" vertex="1" connectable="0" parent="WuQe7vz-Clt-ZLB3GArU-69">
          <mxGeometry x="25" y="-10" width="80" height="40" as="geometry" />
        </mxCell>
        <mxCell id="yFc70cK3wPxbptLiUGwS-2" value="" style="rounded=1;whiteSpace=wrap;html=1;" vertex="1" parent="yFc70cK3wPxbptLiUGwS-1">
          <mxGeometry y="6.666666666666666" width="80" height="26.666666666666664" as="geometry" />
        </mxCell>
        <mxCell id="yFc70cK3wPxbptLiUGwS-3" value="Header&lt;br&gt;Target" style="text;html=1;strokeColor=none;fillColor=none;align=center;verticalAlign=middle;whiteSpace=wrap;rounded=0;" vertex="1" parent="yFc70cK3wPxbptLiUGwS-1">
          <mxGeometry x="5.7142857142857135" width="68.57142857142857" height="40" as="geometry" />
        </mxCell>
        <mxCell id="yFc70cK3wPxbptLiUGwS-4" value="" style="group" vertex="1" connectable="0" parent="1">
          <mxGeometry x="450" y="390" width="120" height="61" as="geometry" />
        </mxCell>
        <mxCell id="yFc70cK3wPxbptLiUGwS-5" value="" style="rounded=1;whiteSpace=wrap;html=1;strokeWidth=2;" vertex="1" parent="yFc70cK3wPxbptLiUGwS-4">
          <mxGeometry x="20" y="41" width="100" height="30" as="geometry" />
        </mxCell>
        <mxCell id="yFc70cK3wPxbptLiUGwS-6" value="" style="ellipse;whiteSpace=wrap;html=1;aspect=fixed;fillColor=#000000;" vertex="1" parent="yFc70cK3wPxbptLiUGwS-4">
          <mxGeometry x="97.5" y="51" width="10" height="10" as="geometry" />
        </mxCell>
        <mxCell id="yFc70cK3wPxbptLiUGwS-7" value="" style="ellipse;whiteSpace=wrap;html=1;aspect=fixed;fillColor=#000000;" vertex="1" parent="yFc70cK3wPxbptLiUGwS-4">
          <mxGeometry x="82.5" y="51" width="10" height="10" as="geometry" />
        </mxCell>
        <mxCell id="yFc70cK3wPxbptLiUGwS-8" value="" style="endArrow=none;html=1;rounded=0;strokeWidth=2;" edge="1" parent="yFc70cK3wPxbptLiUGwS-4">
          <mxGeometry width="50" height="50" relative="1" as="geometry">
            <mxPoint x="80" y="41" as="sourcePoint" />
            <mxPoint x="110" y="11" as="targetPoint" />
          </mxGeometry>
        </mxCell>
        <mxCell id="yFc70cK3wPxbptLiUGwS-9" value="" style="endArrow=none;html=1;rounded=0;strokeWidth=2;" edge="1" parent="yFc70cK3wPxbptLiUGwS-4">
          <mxGeometry width="50" height="50" relative="1" as="geometry">
            <mxPoint x="79.5" y="40" as="sourcePoint" />
            <mxPoint x="57" y="10" as="targetPoint" />
          </mxGeometry>
        </mxCell>
        <mxCell id="yFc70cK3wPxbptLiUGwS-22" value="" style="group" vertex="1" connectable="0" parent="1">
          <mxGeometry x="430" y="480" width="180" height="79" as="geometry" />
        </mxCell>
        <mxCell id="yFc70cK3wPxbptLiUGwS-23" value="" style="rounded=1;whiteSpace=wrap;html=1;" vertex="1" parent="yFc70cK3wPxbptLiUGwS-22">
          <mxGeometry width="180" height="79" as="geometry" />
        </mxCell>
        <mxCell id="yFc70cK3wPxbptLiUGwS-24" value="" style="group" vertex="1" connectable="0" parent="yFc70cK3wPxbptLiUGwS-22">
          <mxGeometry x="20" y="9" width="150" height="60" as="geometry" />
        </mxCell>
        <mxCell id="yFc70cK3wPxbptLiUGwS-25" value="" style="group" vertex="1" connectable="0" parent="yFc70cK3wPxbptLiUGwS-24">
          <mxGeometry width="70" height="30" as="geometry" />
        </mxCell>
        <mxCell id="yFc70cK3wPxbptLiUGwS-26" value="" style="rounded=1;whiteSpace=wrap;html=1;" vertex="1" parent="yFc70cK3wPxbptLiUGwS-25">
          <mxGeometry y="5" width="70" height="20" as="geometry" />
        </mxCell>
        <mxCell id="yFc70cK3wPxbptLiUGwS-27" value="Port" style="text;html=1;strokeColor=none;fillColor=none;align=center;verticalAlign=middle;whiteSpace=wrap;rounded=0;" vertex="1" parent="yFc70cK3wPxbptLiUGwS-25">
          <mxGeometry x="5" width="60" height="30" as="geometry" />
        </mxCell>
        <mxCell id="yFc70cK3wPxbptLiUGwS-28" value="" style="group" vertex="1" connectable="0" parent="yFc70cK3wPxbptLiUGwS-24">
          <mxGeometry x="80" width="70" height="30" as="geometry" />
        </mxCell>
        <mxCell id="yFc70cK3wPxbptLiUGwS-29" value="" style="rounded=1;whiteSpace=wrap;html=1;" vertex="1" parent="yFc70cK3wPxbptLiUGwS-28">
          <mxGeometry y="5" width="70" height="20" as="geometry" />
        </mxCell>
        <mxCell id="yFc70cK3wPxbptLiUGwS-30" value="Addr" style="text;html=1;strokeColor=none;fillColor=none;align=center;verticalAlign=middle;whiteSpace=wrap;rounded=0;" vertex="1" parent="yFc70cK3wPxbptLiUGwS-28">
          <mxGeometry x="5" width="60" height="30" as="geometry" />
        </mxCell>
        <mxCell id="yFc70cK3wPxbptLiUGwS-31" value="40020" style="text;html=1;strokeColor=none;fillColor=none;align=center;verticalAlign=middle;whiteSpace=wrap;rounded=0;" vertex="1" parent="yFc70cK3wPxbptLiUGwS-24">
          <mxGeometry y="30" width="60" height="30" as="geometry" />
        </mxCell>
        <mxCell id="yFc70cK3wPxbptLiUGwS-32" value="192.168.1.1" style="text;html=1;strokeColor=none;fillColor=none;align=center;verticalAlign=middle;whiteSpace=wrap;rounded=0;" vertex="1" parent="yFc70cK3wPxbptLiUGwS-24">
          <mxGeometry x="85" y="30" width="60" height="30" as="geometry" />
        </mxCell>
        <mxCell id="yFc70cK3wPxbptLiUGwS-34" value="" style="group" vertex="1" connectable="0" parent="1">
          <mxGeometry x="860" y="400" width="80" height="80" as="geometry" />
        </mxCell>
        <mxCell id="yFc70cK3wPxbptLiUGwS-35" value="" style="ellipse;whiteSpace=wrap;html=1;aspect=fixed;" vertex="1" parent="yFc70cK3wPxbptLiUGwS-34">
          <mxGeometry width="80" height="80" as="geometry" />
        </mxCell>
        <mxCell id="yFc70cK3wPxbptLiUGwS-36" value="" style="shape=image;verticalLabelPosition=bottom;labelBackgroundColor=default;verticalAlign=top;aspect=fixed;imageAspect=0;image=data:image/svg+xml,PHN2ZyB4bWxucz0iaHR0cDovL3d3dy53My5vcmcvMjAwMC9zdmciIHZpZXdCb3g9IjAgMCA4OTkuMTggOTUzLjkyIiBkYXRhLW5hbWU9IkNhcGEgMSIgaWQ9IkNhcGFfMSI+PGRlZnM+PHN0eWxlPi5jbHMtMXtmaWxsOmdyYXk7fS5jbHMtMntmaWxsOiNmZmE3MDA7fTwvc3R5bGU+PC9kZWZzPjx0aXRsZT5TPC90aXRsZT48cGF0aCBkPSJNNDk1LjQ5LDIzMC45YTYxLjQ2LDYxLjQ2LDAsMCwxLTQwLjYtMTUuNDIsMTgyLjMyLDE4Mi4zMiwwLDAsMC0xMjAuODMtNDUuNjdjLTEwMS4zMywwLTE4My40Nyw4Mi4xNy0xODMuNDcsMTgzLjQ5czgyLjE0LDE4My40MiwxODMuNDcsMTgzLjQySDU3OC42OGE2MS4xNyw2MS4xNywwLDEsMSwwLDEyMi4zM0gzMzQuMDZDMTY1LjIzLDY1OSwyOC4zMiw1MjIuMTQsMjguMzIsMzUzLjI4UzE2NS4yMyw0Ny42MSwzMzQuMDYsNDcuNTRhMzA0Ljc3LDMwNC43NywwLDAsMSwyMDEuOCw3Ni4xMUM1NzguMywxNjAuOTQsNTUyLDIzMC45LDQ5NS40OSwyMzAuOVoiIGNsYXNzPSJjbHMtMSIvPjxwYXRoIGQ9Ik00MDguMzgsNzIzLjExQTYxLjUxLDYxLjUxLDAsMCwxLDQ0OSw3MzguNTFhMTgyLjMzLDE4Mi4zMywwLDAsMCwxMjAuODEsNDUuNjdjMTAxLjYyLDAsMTgzLjkyLTgyLjcyLDE4My40NC0xODQuMzgtLjQ3LTEwMS4zLTg0LjE1LTE4Mi41OS0xODUuNDctMTgyLjU5SDMyNS4xNmE2MS4xNSw2MS4xNSwwLDEsMSwwLTEyMi4yOUg1NjkuNzljMTY4LjgyLDAsMzA1Ljc4LDEzNi45LDMwNS43OCwzMDUuNzVzLTEzNywzMDUuNjctMzA1Ljc4LDMwNS43NUEzMDQuOCwzMDQuOCwwLDAsMSwzNjgsODMwLjMxQzMyNS41OCw3OTMuMDUsMzUxLjg5LDcyMy4xMSw0MDguMzgsNzIzLjExWiIgY2xhc3M9ImNscy0yIi8+PC9zdmc+;" vertex="1" parent="yFc70cK3wPxbptLiUGwS-34">
          <mxGeometry x="8.909999999999968" y="7" width="62.19" height="66" as="geometry" />
        </mxCell>
        <mxCell id="yFc70cK3wPxbptLiUGwS-37" value="" style="group" vertex="1" connectable="0" parent="1">
          <mxGeometry x="615" y="170" width="230" height="90" as="geometry" />
        </mxCell>
        <mxCell id="yFc70cK3wPxbptLiUGwS-38" value="" style="rounded=0;whiteSpace=wrap;html=1;" vertex="1" parent="yFc70cK3wPxbptLiUGwS-37">
          <mxGeometry y="10" width="230" height="60" as="geometry" />
        </mxCell>
        <mxCell id="yFc70cK3wPxbptLiUGwS-39" value="" style="rounded=0;whiteSpace=wrap;html=1;" vertex="1" parent="yFc70cK3wPxbptLiUGwS-37">
          <mxGeometry y="10" width="120" height="60" as="geometry" />
        </mxCell>
        <mxCell id="yFc70cK3wPxbptLiUGwS-40" value="" style="group" vertex="1" connectable="0" parent="yFc70cK3wPxbptLiUGwS-37">
          <mxGeometry x="105" y="60" width="70" height="30" as="geometry" />
        </mxCell>
        <mxCell id="yFc70cK3wPxbptLiUGwS-41" value="" style="rounded=1;whiteSpace=wrap;html=1;" vertex="1" parent="yFc70cK3wPxbptLiUGwS-40">
          <mxGeometry y="5" width="70" height="20" as="geometry" />
        </mxCell>
        <mxCell id="yFc70cK3wPxbptLiUGwS-42" value="Package" style="text;html=1;strokeColor=none;fillColor=none;align=center;verticalAlign=middle;whiteSpace=wrap;rounded=0;" vertex="1" parent="yFc70cK3wPxbptLiUGwS-40">
          <mxGeometry x="5" width="60" height="30" as="geometry" />
        </mxCell>
        <mxCell id="yFc70cK3wPxbptLiUGwS-46" value="" style="group" vertex="1" connectable="0" parent="yFc70cK3wPxbptLiUGwS-37">
          <mxGeometry x="25" y="30" width="69" height="30" as="geometry" />
        </mxCell>
        <mxCell id="yFc70cK3wPxbptLiUGwS-47" value="" style="rounded=1;whiteSpace=wrap;html=1;" vertex="1" parent="yFc70cK3wPxbptLiUGwS-46">
          <mxGeometry y="5" width="70" height="20" as="geometry" />
        </mxCell>
        <mxCell id="yFc70cK3wPxbptLiUGwS-48" value="70.70.70.70" style="text;html=1;strokeColor=none;fillColor=none;align=center;verticalAlign=middle;whiteSpace=wrap;rounded=0;" vertex="1" parent="yFc70cK3wPxbptLiUGwS-46">
          <mxGeometry x="5" width="59" height="30" as="geometry" />
        </mxCell>
        <mxCell id="yFc70cK3wPxbptLiUGwS-68" value="" style="group" vertex="1" connectable="0" parent="yFc70cK3wPxbptLiUGwS-37">
          <mxGeometry x="19.5" y="-10" width="80" height="40" as="geometry" />
        </mxCell>
        <mxCell id="yFc70cK3wPxbptLiUGwS-69" value="" style="rounded=1;whiteSpace=wrap;html=1;" vertex="1" parent="yFc70cK3wPxbptLiUGwS-68">
          <mxGeometry y="6.666666666666666" width="80" height="26.666666666666664" as="geometry" />
        </mxCell>
        <mxCell id="yFc70cK3wPxbptLiUGwS-70" value="Header&lt;br&gt;Target" style="text;html=1;strokeColor=none;fillColor=none;align=center;verticalAlign=middle;whiteSpace=wrap;rounded=0;" vertex="1" parent="yFc70cK3wPxbptLiUGwS-68">
          <mxGeometry x="5.7142857142857135" width="68.57142857142857" height="40" as="geometry" />
        </mxCell>
        <mxCell id="yFc70cK3wPxbptLiUGwS-49" value="" style="group" vertex="1" connectable="0" parent="1">
          <mxGeometry x="630" y="320" width="230" height="90" as="geometry" />
        </mxCell>
        <mxCell id="yFc70cK3wPxbptLiUGwS-50" value="" style="rounded=0;whiteSpace=wrap;html=1;" vertex="1" parent="yFc70cK3wPxbptLiUGwS-49">
          <mxGeometry x="-15" y="10" width="230" height="60" as="geometry" />
        </mxCell>
        <mxCell id="yFc70cK3wPxbptLiUGwS-51" value="" style="rounded=0;whiteSpace=wrap;html=1;" vertex="1" parent="yFc70cK3wPxbptLiUGwS-49">
          <mxGeometry x="-15" y="10" width="120" height="60" as="geometry" />
        </mxCell>
        <mxCell id="yFc70cK3wPxbptLiUGwS-52" value="" style="group" vertex="1" connectable="0" parent="yFc70cK3wPxbptLiUGwS-49">
          <mxGeometry x="105" y="60" width="70" height="30" as="geometry" />
        </mxCell>
        <mxCell id="yFc70cK3wPxbptLiUGwS-53" value="" style="rounded=1;whiteSpace=wrap;html=1;" vertex="1" parent="yFc70cK3wPxbptLiUGwS-52">
          <mxGeometry y="5" width="70" height="20" as="geometry" />
        </mxCell>
        <mxCell id="yFc70cK3wPxbptLiUGwS-54" value="Package" style="text;html=1;strokeColor=none;fillColor=none;align=center;verticalAlign=middle;whiteSpace=wrap;rounded=0;" vertex="1" parent="yFc70cK3wPxbptLiUGwS-52">
          <mxGeometry x="5" width="60" height="30" as="geometry" />
        </mxCell>
        <mxCell id="yFc70cK3wPxbptLiUGwS-58" value="" style="group" vertex="1" connectable="0" parent="yFc70cK3wPxbptLiUGwS-49">
          <mxGeometry x="10" y="30" width="69" height="30" as="geometry" />
        </mxCell>
        <mxCell id="yFc70cK3wPxbptLiUGwS-59" value="" style="rounded=1;whiteSpace=wrap;html=1;" vertex="1" parent="yFc70cK3wPxbptLiUGwS-58">
          <mxGeometry y="5" width="70" height="20" as="geometry" />
        </mxCell>
        <mxCell id="yFc70cK3wPxbptLiUGwS-60" value="192.168.1.1" style="text;html=1;strokeColor=none;fillColor=none;align=center;verticalAlign=middle;whiteSpace=wrap;rounded=0;" vertex="1" parent="yFc70cK3wPxbptLiUGwS-58">
          <mxGeometry x="5" width="59" height="30" as="geometry" />
        </mxCell>
        <mxCell id="yFc70cK3wPxbptLiUGwS-65" value="" style="group" vertex="1" connectable="0" parent="yFc70cK3wPxbptLiUGwS-49">
          <mxGeometry x="5" y="-10" width="80" height="40" as="geometry" />
        </mxCell>
        <mxCell id="yFc70cK3wPxbptLiUGwS-66" value="" style="rounded=1;whiteSpace=wrap;html=1;" vertex="1" parent="yFc70cK3wPxbptLiUGwS-65">
          <mxGeometry y="6.666666666666666" width="80" height="26.666666666666664" as="geometry" />
        </mxCell>
        <mxCell id="yFc70cK3wPxbptLiUGwS-67" value="Header&lt;br&gt;Target" style="text;html=1;strokeColor=none;fillColor=none;align=center;verticalAlign=middle;whiteSpace=wrap;rounded=0;" vertex="1" parent="yFc70cK3wPxbptLiUGwS-65">
          <mxGeometry x="5.7142857142857135" width="68.57142857142857" height="40" as="geometry" />
        </mxCell>
        <mxCell id="yFc70cK3wPxbptLiUGwS-61" value="" style="endArrow=classic;html=1;rounded=0;strokeWidth=4;strokeColor=#FFAD66;" edge="1" parent="1">
          <mxGeometry width="50" height="50" relative="1" as="geometry">
            <mxPoint x="735" y="262" as="sourcePoint" />
            <mxPoint x="735" y="322" as="targetPoint" />
          </mxGeometry>
        </mxCell>
        <mxCell id="yFc70cK3wPxbptLiUGwS-62" value="" style="group" vertex="1" connectable="0" parent="1">
          <mxGeometry x="630" y="260" width="80" height="40" as="geometry" />
        </mxCell>
        <mxCell id="yFc70cK3wPxbptLiUGwS-63" value="" style="rounded=1;whiteSpace=wrap;html=1;" vertex="1" parent="yFc70cK3wPxbptLiUGwS-62">
          <mxGeometry y="6.666666666666666" width="80" height="26.666666666666664" as="geometry" />
        </mxCell>
        <mxCell id="yFc70cK3wPxbptLiUGwS-64" value="NAT" style="text;html=1;strokeColor=none;fillColor=none;align=center;verticalAlign=middle;whiteSpace=wrap;rounded=0;" vertex="1" parent="yFc70cK3wPxbptLiUGwS-62">
          <mxGeometry x="5.7142857142857135" width="68.57142857142857" height="40" as="geometry" />
        </mxCell>
        <mxCell id="yFc70cK3wPxbptLiUGwS-71" value="" style="endArrow=none;html=1;rounded=0;strokeWidth=4;strokeColor=#FFAD66;endFill=0;startArrow=classic;startFill=1;" edge="1" parent="1">
          <mxGeometry width="50" height="50" relative="1" as="geometry">
            <mxPoint x="840" y="440" as="sourcePoint" />
            <mxPoint x="615" y="439.5" as="targetPoint" />
          </mxGeometry>
        </mxCell>
        <mxCell id="yFc70cK3wPxbptLiUGwS-72" value="" style="group" vertex="1" connectable="0" parent="1">
          <mxGeometry x="750" y="460" width="80" height="40" as="geometry" />
        </mxCell>
        <mxCell id="yFc70cK3wPxbptLiUGwS-73" value="" style="rounded=1;whiteSpace=wrap;html=1;" vertex="1" parent="yFc70cK3wPxbptLiUGwS-72">
          <mxGeometry y="6.666666666666666" width="80" height="26.666666666666664" as="geometry" />
        </mxCell>
        <mxCell id="yFc70cK3wPxbptLiUGwS-74" value="Receiving&lt;br&gt;Package" style="text;html=1;strokeColor=none;fillColor=none;align=center;verticalAlign=middle;whiteSpace=wrap;rounded=0;" vertex="1" parent="yFc70cK3wPxbptLiUGwS-72">
          <mxGeometry x="5.7142857142857135" width="68.57142857142857" height="40" as="geometry" />
        </mxCell>
        <mxCell id="yFc70cK3wPxbptLiUGwS-75" value="" style="group" vertex="1" connectable="0" parent="1">
          <mxGeometry x="330" y="420" width="80" height="40" as="geometry" />
        </mxCell>
        <mxCell id="yFc70cK3wPxbptLiUGwS-76" value="" style="rounded=1;whiteSpace=wrap;html=1;" vertex="1" parent="yFc70cK3wPxbptLiUGwS-75">
          <mxGeometry y="6.666666666666666" width="80" height="26.666666666666664" as="geometry" />
        </mxCell>
        <mxCell id="yFc70cK3wPxbptLiUGwS-77" value="Port&lt;br&gt;40020" style="text;html=1;strokeColor=none;fillColor=none;align=center;verticalAlign=middle;whiteSpace=wrap;rounded=0;" vertex="1" parent="yFc70cK3wPxbptLiUGwS-75">
          <mxGeometry x="5.7142857142857135" width="68.57142857142857" height="40" as="geometry" />
        </mxCell>
        <mxCell id="AjTLCQ3Ups0C0CaoTfsF-1" value="" style="shape=image;verticalLabelPosition=bottom;labelBackgroundColor=default;verticalAlign=top;aspect=fixed;imageAspect=0;image=data:image/png,iVBORw0KGgoAAAANSUhEUgAAAgAAAAIACAYAAAD0eNT6AAAABHNCSVQICAgIfAhkiAAAAAlwSFlzAAAPaAAAD2gBXvJN6AAAABl0RVh0U29mdHdhcmUAd3d3Lmlua3NjYXBlLm9yZ5vuPBoAACAASURBVHic7d13uKZVefb/794zA1MoU6jDDIz03qU3BQTBrqAROxFjfI1JNGo0RuPvTV41sUUTxRKVaIhoYkEpItJUuiCCdBh6GZgCU5iZPXv//lh7w57NLk+5z2vd5fwcxzoGcVjPup67Xc+6V+nBzMpuMrD5YNkSmAnMGvxzeJkNbAZsCkwDNhr8bzcEekaU0QyMKKuBtcAKYBWwDHgCWAwsHVGWDP75GLAIeBxYV0j0ZiYx1o3AzGLMBuYB2wLzB8s8YBtgi8GyOdW7Vgd4LhF4DHgYeAB4cPDP+wf/eXGuBpo1XdVuKmZV00N6oO84rOww7J9n5GtaKSwH7gbuGlHuJiUIA/maZlZvTgDMijMX2B3YY9ifewMb52xUha0mJQK3AH8c9uetQH/GdpnVghMAs/ZNBnYBDhgsuwP7k7rzTW858HueSwiuB64DnsnZKLOqcQJgNrGdgYOHlb1IA+usPFYDNwHXAFcDVwF3Zm2RWck5ATBb33TgEOCIwT8Pxr/sq+pJUjJwNXD54J+rsrbIrEScAFjTzQAOJT3wDx/8c2rWFplKH+nVwS+B3wBXkKYumjWSEwBrmsmkX/XHD5aDBv+dNU8fqVfgosFyzeC/M2sEJwDWBNsDLyU98F8EbJK3OVZSy4BLSMnA+cC9eZtjpuUEwOpoErAv8HLgZaSR+mbtugf4GXAucBlpVUSz2nACYHUxg/Qr/5WDf87J2xyrmSdIvQI/GfxzZd7mmHXPCYBV2XTgWOAU4NWkte/N1J4hDST8ASkhWJa3OWadcQJgVbMx6WF/KnAcno9vea0mjRn4PvBj0iJFZpXgBMCqYBJp8N5b8C99K6+hnoGzSD0Da/I2x2x8TgCszI4gPfRfR9r+1qwqFpNeEfwnac0Bs9JxAmBlszWpe/900pK7ZlV3B3A28C3gvsxtMXuWEwArgymk0ftvB04gdfmb1c064AJSIvBTPK3QMnMCYDnNBd4MvAeYn7ktZpEeA74NfBVYmLUl1lhOACxaL/Bi4AzSgD4vw2tN1g/8Cvga8L+kXgKzEE4ALMompC7+9wI7ZG6LWRndBXyB1DOwIm9TrAmcAJja9qRf+2fgkfxmrVgGfAf4DPBQ5raYmbXtSOBHpC7NARcXl7bLM8DXgd0wE3APgBWph7QBz4eBQzO3pUn6gN8BlwMPAF8Ufc77SIM1jwb2x7M1ogwA5wH/AlyatylmZuubArwVuIX8v5qaUIb2sf8McBJpeeQh2ws/9wXDPmcT4GTgn4FrB9uU+3tpQrkOeAMePGtmmW0AvJu0uEnuG2MTynWkX+FbjHNMohKAkWaRVm28iDSyPfd3VfeyEHgXKfk2MwvTS9qB7y7y3wjrXm4BPkHrMydyJQDDzSMlKr8O+o6aXO4jDbB1j4CZSQ09+G8n/42vzmUNaQ35/Vo7LOspQwIw3P7A9wZjyv291rncS0oEPC7DzAo1NLjvRvLf6OpcniIN4Nu2tcMyqrIlAEO2IvVkLBa2zwX+SHoV09vSUTEzG0MP8Ar84FeXh4D3kwbWdausCcCQTYG/AR4WttMFbiAl7WZmbTsRuIb8N7I6l6eBjwHTWzwmrSh7AjBkBqlHYLmwvS5ptsgJrR0SM2u63UlzjnPfuOpc1gFnkbY+LlpVEoAhc4Ez8TRCdbkYb69tZmOYR1qD3Cv3actFwD6tHZKOVC0BGLIbcK6w7S5p++EvAbNbPCZmVnMbAZ8kbT6S+wZVdHmsBG0Y3pa3tHhMulHVBGDIKcDjwhjaLYtK0Iaiy5PA/8FTB80a7eXUbxGfoXnzZ5agLUPlHGDz1g5J16qeAEBa6OgsYRztlq8BHyKNsM/dliLLbaSVJM2sQXYFfkH+G1BR5V7S9LkjBuP7xxK0aQB4FHhtKwekQHVIAIa8jDRDIvdxHCAteQywBynBvK0EbSqqXEQa+2NmNTYL+FfSu8DcN51uy2Okm/LIxXL+qQRtGyAtfpPjXWudEgCAzYDvd9jeoss/jGjb/sBnKdcri07LatL1tOm4R8PMKulNlOudeCdlHann4hTSPgQjvbsEbXyGtAxuLnVLAIa8BVg5Rrsiy3tHadsGwKmkX9JVH0T7yGAsZlYDOwAXkv/G0u1N6VOkh9tYXkH+qWT3AQeP08YIdU0AIP3ivoe8x3gd8Jpx2jiPNF6g6mNrfkZ3K1KaWUZTSDeiVeS/mXR6o72I9Gt/oh3PjixBnD+jHNOr6pwAAMwh/zoVK3luvMlYJgHHkQaAVvWV2zJSb5aXFTarkMOo7ojlh4GPA/NbjHV38q4v3wd8lLRschnUPQGA9ED6O/L2+DxBGkzbivmkgYOPZGxvN+WKNmI1s0ymkbrKc3eFd1LuIP3amNpGvHNJ+6LnavNyyrfeehMSgCGvJO/6FQ+QuvxbtQFpLMMfMra507KGdG8ZbeyNmWV2ONWcmvRr0kO03V/Qm5A2PMnV7idIPS1l06QEAOAg8g5uvQmY2UG7jyCtfNifse2dlD+Qf5yLmQ2aQVres0qjj4f2u9+3w5gnARdkbP/tjD8gMaemJQAAOwJ3ku98+DmdvyffnzRldE3G9rdb+oDPU+wmVmbWpgOp1q/+Iva7B/h0xhiuJG5Vv040MQGANADzCvKdF//YZfu3Jo0TyDmepd1yG3BAl3GbWZt6gQ9TnV8NT5BmJBSx3/2p5Os2/R/aG6OQQ1MTAEi/SH9CnnOjn2JWfdwU+Ahpvf7c120rZTXwQTxTwCzEfOAS8l/4rZSnSAOHilpdbG/y7R9/DtXYPKXJCQCk10PfI8858jSwZ0FxbERKmpdkiqXd8ivaGxBpZm16LdX4ZbCc9OCfVWDss4G7MsXzfarx8AcnAJCSgO+S51y5l7RWQVFmk14NLMsUTztlKfDGAmM3M2BjyrW73VhlBekd/5YFx99LvsVf/pvqPPzBCcCQSaSBpjnOmV8Mfn6RNiMl1VXYtvssUg+GmXXpINIc+dwX9XhlNSlBmSv6Dv45U1xnU62HPzgBGC5nEvBPopg2JyUCuVe+nKjcS5qabGYdmAT8PeVeRnQd8HW07/5eQ55Bf9+h+F9xEZwArC/XmIB+0v4UKtsC36Tc03/XkFbJrOJ1ZJbNHFI3Yu4LeLxyKZ3P42/VPNIMgujYfkJ1b1pOAJ5vEmkGR/R5tBj9hjr7AZdliK2dcgmwheoLMKuT/UjdZ7kv2rHKA6TlTNVr3/cCF2eI70qqvcCJE4DRTSOtOhl9Pl1KTDL5cvLvlDheuZ/0OtPMxlCWPc9HKytIo5Gj5sF/TBzPaOVmip25kIMTgLHNIc8mWR+OCI6U5HyINP029/1itPIM8Key6M0qakPS6PncF+hopZ80Bz5yb/CDiF/k6EHqsf+5E4DxzSP9Go08t9YCh0YEN2guaVBuWccHnEVKVswabx6p2zn3RTlauYb4DW82Jb4rcylpkaE6cAIwsT2JX3L3bopZCbMdBwK/KaDtinIdsJ0udLPyexHwOPkvxpFlMfB28uxxf3YH7e2mrKJe05WcALTmGNL01chz7bsRgY3QA7yTcq4o+ChwtC50s/I6g3Ku5X8usI0w7vG8rYX2FV3eFhBXJCcArTuD+PPtTSGRPd9WpK733PeXkaWPNG4hx48Ns3DTSUvL5r7wRpYH0c5bnshc4n+lfCEkslhOANrzFWLPuaXkXTP/NcDDo7QrdzkbjwuwmptDnqlI45V+0i+D2cK4W/FjYuO+HJgSElksJwDtmUKaqhd57p0bEdg4NiUNOi7bIMGr8HoBVlM7Ur4lfe8CXqwMukVvIjbuhaQlVevICUD75hA/8PQNIZGN7wjgVvLfh4aXe4BdlUGbRTsMWET+i2uorCWtJ16Gve03I3Yg5ErggJDI8nAC0Jl9id1oZxHl+LU7lbS+R/SAyPHKYjw40GriTZTr4roZ2EcacXvOITb+18eElY0TgM6dRuy5eHZMWC3ZjzyLJI1VnsFbC1vFvY88G9mMVvpJi4OUaZnbVxD7HXw5JqysnAB052vEnpOvjgmrJVNJYwPKdM/6hDJgM4XJwFfJfwENlceAl0kjbt9s4BHivoM/0IxRxk4AujMV+D1x5+XDlG/56ZdQrpkC36KeA3athjYGzif/RTNULgS2lkbcme8Q9x2sAHaLCSs7JwDd25PYPTm+GRNWW7YgzVbIff8aKr8kzV4wK635pHfsuS+WAdIN7D2Uc4GNw4ntZjw9JqxScAJQjHcTd372A0fFhNWWHuAvSKtl5r6fDQA3kW+RMrNxLSBNq8t9kQyQkpCyrm0/CbiRuO/iBzFhlYYTgOL8N3Hn6e+I2Ta4E7sDN5D/vjZAmsK7ozRaszbtRlpJL/fF0Q98lrS7YFm9l7jv4z7K935VzQlAcWYC9xJ3vr47JqyOlGmA4AN4rQAriX0px4Y+TwGvE8farc2J24WtDzgkJqxScQJQrCOJWzHvSdKiRGX2CtJyxrnvd4+R7r1m2RwIPEH+i+F2YA9xrEX4OnHfyaeDYiobJwDF+wJx5+1Xg2Lqxi7ALeS/7y0BDhXHajaqo4Bl5L8IfkI1RsceQNwvqdtoxpS/0TgBKN504pbxXgccFBNWVzYGfkj++99y4FhxrGbrOZHYaUKjlT7SIhllHOU/Ui9wJXE30CNiwiolJwAahxGXwF5LumbKroe0lW8fee+FK0j3ZDO5l5N/WswTwPHqQAt0OnHfzWeDYiorJwA6XyLuPH57UExFOIb0Tj7nPXE18FpxnNZwbwDWkPdEv5405bAqNgIeJea7uZNyLXWcgxMAnY2I2zXwkcHPq4r5wNXkvTf2AW9VB2rNdBr598/+JuXYwa8dnyDmu1lHORdTieYEQOsY4qbC/X1MSIWZRuwKn2PdB05TB2rN8irSFrq5TuqqboqxBWl6YsR39G9BMZWdEwC9M4k5p58iTZ2tmveR98dSH3CKPEprhONJW1PmOpmrvC3ml4n5jh6jeQv+jMUJgN5s4tb++GJQTEV7HXnHSq0GTpZHabV2OGmaSa6T+Emq2639AtJFGPE9vTUopipwAhDjT4k5t9cAOwTFVLRDybtI2krSKxuzth1MXPf1aOUu0oIbVRW1jvqvqcZUyChOAGL0Ar8l5hz/XlBMCjuQFirLdR9dTrOnBVsH9ib9+s510l5JNd/9DdmXmHeAfXg50JGcAMTZn5g58P2Dn1VVc4AryHc/XUq1vz8LtDNpCk6uk/WHVH8Vu4uI+a6+EBVQhTgBiPVvxJzrF0QFJLIhcDb57quPk3Y1NBvTtqQd5HKdpF+kGiuAjecEYr6rR0m7tdn6nADEmkXcIjjHBcWk0kPctODRyoOk68PseeYTu/Xn8NJPmjpTB1cR8529OSqginECEO/txJzzv4kKSOwD5NtW+G5gG32IViWbAL8nzwm5jjSiuA5eQsx3dg0e+DcWJwDxeoDriDn3XxwUk9oZ5Fsr4Bbce2iDpgC/IM+JWLelKy/HN8HcnADkcQwx5/4lQfFEeCP5Fli7BNhAH6KV3bfIcwKuBl4TEF+UY4j53n4aFE9VOQHI5zxiroEjowIKkHNztW8GxGcl9vfkOfFWkAbL1cnF6L+3PmCPqIAqyglAPrsR84v2wqiAgryUfNurfyQgPiuhN5BnIMpy4NiA+CIdQsx3d2ZUQBXmBCCvbxJzLRwWFVCQo4BlxN+P+/GA4sY5ijzr+y8hLY9ZN+ej/+5WAvOiAqowJwB5zSVm+fBzowIKdCDwBPH35dV4XFFj7AosJv4kexzYJyC+aPsR05PyiaB4qs4JQH7/l5h7ygFRAQXajzz7BzxJtZdetxZsBtxJ/MlV56Uof4z++3sM2DgqoIpzApDfJsQ8xP4nKqBguZZiv4e0hbnV0DTiNu8YXuq8GcUexPz6/0BUQDXgBKAcPoj+ulhH6tGso1ybsV0DTA+IzwL1AN8n/mRaARwdEF8u30D/HS4CNooKqAacAJTDDGKWCP5qVEAZvIg8swPOjgjO4vwN8SfRauDkiOAy2ZyYi/P9UQHVhBOA8vgQ+utjJenVZl29hDwDtv8qIjjTexHxq031AadEBJfRx9F/j/713z4nAOUR1QtQ97nsryb+Hr6WtLiZVdh84keUrgNOiwguow2J2TLZv/7b5wSgXCJ6AR6i/svavpn4vQMew1OPK2tD4GpiT5h+4F0RwWX2DvTf5aN4ME4nnACUS1QvwJuiAsroHcQv3nYV6VliFfM1Yk+UAeqzpe9EbkT/Xf51WDT14gSgfCJ6Aa4PiyavDxB/X//3kMisMG8h/iT5fyGR5Xcs+u/Sv/475wSgfDYi5lXk0VEBZfZZ4u/v7wiJzLq2H/FTR84BeiOCK4Gfo/8+6z6oSckJQDl9HP118+OwaPLqJS2CFHmPX0VaqthKbDZpNafIE+NqmvNrdRf07+CWk46jdcYJQDltRloXRHntrAN2iAoosxwLu91HvadcVtok4JfEnhB30KwT4gvov9MvhEVTT04Ayuvf0F8/nwmLJr8tgLuJvedfSHrWWMl8nNgT4Qlg55DIymEq+vW5+2jOLxgVJwDltT3pHFdeQ4to1qj1HYif6u1XlCXzQmANcSfAKuDwkMjK483ov1cvwdk9JwDl9kP019Hrw6IphyOJXS1wLWmvAiuBjUhd8VEHv5/6L/QzmsvRf7e+qLrnBKDcXoj+Oro4LJryeD2xawTchXcoLYVvE3fQB0hzeptmV/QX16/Coqk3JwDldwXaa6mfZr2eHPIxYp8F34gJy8ZyKrEH/JsxYZXO59B/tyeFRVNvTgDK75Xor6dPh0VTLt8h9pnw2piwbKR56AelDS+/I009aZqppAGPyu/2VtKWzdY9JwDl1wvcifaaepz67w8wmqnAdcQ9F5YA24ZEZs/qJb3nijrIT9Dcm99p6L/fvwiLpv6cAFTD+9FfV6eGRVMu25FmQ0Q9Hy7DUwND/S1xB7ePtCd1U12K9vtdAcyKCqYBnABUw0z0CwP9Miya8jkW/ZTL4eVvYsIqVhW7XfcHriSue+sm4PagzyqbjYETxZ9xD83ZyCTCDHTjKc4jPbSsGC8EFog/43zS6ppNtBuwZ9BnrQWOAK4J+rxCVC0BmEF6F9/EEa5mZlZetwEHkPaiqYSqvbf4PPDS3I0wMzMbYTPSvjAX5m5Iq6rUA3AYaf5sU3bdMzOzauknvQq4MndDWlGVBGA6cCOwU+6GmJmZjeMPpFcBa3M3ZCJVeQXwaeDk3I0wMzObwJakvWkuz92QiVShB+BQUtd/VZIVMzNrttWkGWt/zN2Q8ZT9ffoGpOV3/fA3M7Oq2BD4KiV/xpb9wfpR4JTcjTAzM2vTdsCjpKWJS6nMrwB2JA2mmJq7IWZmZh14CtgDeDB3Q0ZT5u6Jr+CHv5mZVdcmpFcBpVTWBODNwHG5G2FmZtalkynpq+wyvgKYRVpScYvcDTEzMyvAo8CuwLLcDRmujIMA/xl4Ue5GmJmZFWQj0syAUi0TXLYegL1JO8NNzt0QMzOzAvUB+wK35G7IkLKNAfgifvibmVn9TAb+NXcjhitTAnAacEzuRpiZmYm8mBINCCzLK4CNgNuBubkbYmZmJvQAaUDgytwNKcsgwI/hzX7MzKz+NiVtFnRZ7oaUoQdgG9Kv/xm5G2JmZhZgObAz8EjORpShB+DLwAtzN8LMzCzIBsBM4Kc5G5G7B2Bf0rS/Mg1GNDMzU+sn/fj9Xa4G5E4ALkK/5O9q4BukLhd7vpOBPYX1/xy4WVi/rW8m8C5R3V+lZCuZ1dw+wInC+m8CzhfWX2UbAaej34/mEtLMgMY5ERgIKG+PCqiCeoCH0X33z5AGvFic7dEdzxcExmFpWfTV6I7nw+T/EVhmZxDzjDohKqAyuRr9F/tbfIKPZ3+03/9P4kKxQU4A6uU8tNfoPnGhVE4vMc+pG8n0GjzXu/dXAgeJP2MA+MvBP210J4nr/5G4frO6+7G4/peK66+yfmKeIfsArxV/Rmn0ADegz6q+HRRPlf0G3fffB2weF4oNcg9AvWwJrEN3TLPPRa+A/0L/vLqdhiyDfyr6L/NpvKrgRGYBa9EdgyviQrFhnADUz1Xojula0sBRG9s80iBy9XPr9KiAhkS/ApgEfDzgcz5FGuBiY3sJ2ozzXGHdZk2ivJYmA8cK66+DB0nb1Kv9PWnL4Np6E/os6h70Uzfq4Ntoj8MuYZHYcO4BqJ+90F6r34gLpbKmAQvRP7/eHRRPuEnAbei/wMYMpuiCevrfnXGh2AhOAOrpHnTH1dMBW/MG9M+v+6lpL8Dp6L+8X+MTuRUHoD0On4kLxUZwAlBPX0B7ze4dF0qlXY7+OfZnYdEEmYI2gx0gjZQ9ICqgivs7tMfiyLhQbAQnAPV0LNpr9kNxoVTafmhnZQyQegE2iAoowrvRfmEDwNfDoqm+y9AdhycoxyZTTeUEoJ6mAEvQHduL40KpvG+hf56plvMON4WU0Si/rFWkqRo2sWmkJXpVx+KsuFBsFE4A6ks5H30lNX33LLAd2iWaB4B7CVgXIGIa4GnAfPFnnEmaqmETOxTthX6hsG6zJvuFsO5pwMHC+uvkPvQzJxYArxd/hlwPaSc4Zaa0Ei/6045PojsW/cBWcaHYKNwDUF9zSdeY6vj+fVwolbc16dmjfLbdhHhQu7oH4JXAHuLP+DJe9KcdxwjrvhF4VFi/WZM9DPxRWP8xwrrr5hFSz7PSXuj3a5FSrjU/QFryd4uwaKpP/f7/03Gh2BjcA1Bvn0N3fFeR7hHWms2Bp9A+4y5XBqDsATgSOExYP8AXgcfFn1Enh6F9/3+RsG4z015jU/E4gHYsAv5d/BkRz1GJH6PNjJYCs8OiqYf/D93xWIl/PZSBewDqbTraXrxPhEVSD3OAZWifdT9QNV7VA/AC4GWiuod8Flgs/oy6OUZY92WkLkQz01lJerWqcoyw7jp6krRKo9KrSYl9ZaiXrXwC2CQsmnpQ/3L467hQbBzuAai/D6M7xqtJ9wpr3aakRED5zPuXsGi6tAn6LhEvW9m+49Aekz3jQrFxOAGov/3RXssvjgulNj6K9pgsBTYuutGKVwCno/11/hTwVWH9dXWUsO5HgFuE9ZvZc24kDUBTOVpYd119ifTDV2VT4O1FV1p0AtALvKfgOkf6Gtovuq6UI0mH9hYwM71+tNPDDhXWXVdPkfYIUHovMav3duylaLtB1gDbhkVTH71oX8v8eVwoNgG/AmiG96E7zsso+YOmpOaRnlHKZ+BLimxw0Qf53QXXN9J/kzYWsvbsgfa1jHSxCjN7HuU1twmwm7D+unoQ+KH4M9TP2I5tC/ShzX72C4umXs5Ad0yexL8WysQ9AM3Qi3Z74NPjQqmVA9A+A9dS4M63Rd6434V2H/iLgBuE9deZcnWvK0jvJM0sTj/wW2H9XhGwM9cDlwjrnwz8aVGVFZUATAHeVlBdY/msuP46O0RY9xXCus1sbMprT3nPqDv1s+oM0jO3NF6HttvjD4i3RayxTYF16I7NQXGhWAv8CqA5DkN3rNfhxdY61UOaFq18Jr6qiIYW1QPwjoLqGctnSUFb+w5G945+OX4tY5bLtaSlgRV6gQNFddfdAGnXRqVC1gQo4sGwDQVPTRjhYeC/hPXXnXJO75WkQSlmFm8tcJWwfr8G6Nx3SQukqZwEbN1tJUUkAG9GO/jva6S5ldYZ9QBAM8tHeQ16IGDnVgNfF9Y/GThNWH/LbkX7HsoL/3Suh7Rxkur4eM3w8vEYgGY5Ht3xfiwwjjqaj3Zq/G1xoYzuCHTBDQA/iwullnZAd2zWkQYYWrk4AWiWWaQpgapjvl1cKLV0PtpnZFe9NN2+Anhzl//9RJRdKE2gXDjpNrwng1luS4A7hfXvK6y7CdTPsLd08x93kwBsALy2mw+fwKPAecL6m2AfYd3XCOs2s9Ypr0UnAN35KdrBgKfSxZoA3SQALwXmdPHfT+SbeIR5t5QX77XCus2sdcprUfkjogn6gLOE9W9GGgfSkW4SgDd28d9OZAD91opNoEwArhbWbWatcw9AuX2N9ExTUT6LR7UxsALdwIYL40KprTnojs8q0isgKx8PAmyeDYFn0BzzftJAQ+vOr9Bdl8uBjTppVKc9AK8Bpnf437bCg/+6pxwAeANem8GsLFaTlktX6AH2FtXdJMpn2gzgFZ38h50mAKd2+N+14gngXGH9TaHsuvMAQLNy8WuAcvsfYJGw/o6eyZ0kAJsCx3byYS36Nimjte4oB+94AKBZuXggYLmtAb4nrP8EOngN0EkC8HLSOyeV7wrrbhInAGbN4R6A8lMmAFOBk4X1P+tH6AYz3B4RQANsSMo4VQNOVLsLWvc8CLCZJqEbmL0aD/otyp3ors9z2m1Muzfy6Wh3/vu+sO4m2YsuFoeYwE2kkcFmVh7rgD+K6t4A2E1Ud9P8QFj3yaQBgS1rNwE4Ce3o/7YzGBvVHsK6VaONzaw7Nwnr3lNYd5Mon3Ft/0BvNwF4VZt/vx23ATcL628SZbb+e2HdZtY5ZQKwi7DuJrmRtIOuyivb+cvtJACTgBPba0tbzhbW3TS7CutW3mTMrHPKa9OvAIrzQ2HdJ5Ge1YU7Ct3ghQF8ghXpNjTHqB+YGRiHtc+DAJtrNrpj71d/xdkV7bP00FYb0k4PwMva+Lvt+j3abpEmmUJ6CCgsBJaK6jaz7iwGHhTVvTMwWVR309wG3CKsv+XpgGVJADz6vzg7op0BYGblpbpGNwAWiOpuIuUz7+Wt/sVWE4Dt0XbRK6dGNI0HAJo1l/IaVY4tahplArA3LSZrrSYAL+24KRO7AbhLWH/TKC9Svwc0KzflNeoEoDh3oO1RbWk6YKsJgHLxn58J624i5XQdT9M0KzcnANXxc2Hdx7fyl1pJACYDR3fXlnGdL6y7iVQX6VrgblHdZlaMO0mrAio4ASjWBcK6j6Wg6YBHoJuusLioRtqzlqI5VrdFGOscjwAAIABJREFUBmEd8zRAuxvN8X8yMogGmAwsQXe9HjRRA1rpAWipK6FDv0CXrTbRNqTtmhW8UZNZNaiu1dnA5qK6m6gPuFhY/4Sv7nMnAO7+L9ZOwrqdAJhVg7K3bmdh3U2kfAZO+OyeKAHYGHhhMW15ngHgQlHdTaVaAAicAJhVxR3Cuv0aqFgXkJ6FCocwweZ9EyUAh6Nb/ekG4FFR3U21nbBuJwBm1aC8VhcI626ih9DN3NiAlASMaaIE4Kji2vI87v4vnjI7dwJgVg3Ka9U9AMVTzgYY9xk+UQLg6X/VskBU72JgkahuMyvWw8BToroXiOptMuWzcNxn+HgJwDTgwGLb8qwlwNWiuptMlZ37179ZtajGAbgHoHi/AZaJ6j4EmDrW/zleAnAo6R2CwsWkKRBWnA2AuaK6nQCYVYvqmp2PdwUs2lrgElHdUxlnIP94CcARxbflWZcL626qbWlvd8d23Cmq18w0VD0Ak4F5orqbTPlMHPNZPlEPgMqvhXU3lbJrbqGwbjMr3n3CuhcI624q5TNxzJkAYyUAPejm/y/Hu8opLBDWvVBYt5kVb6Gwbo8DKN4NpGejQtsJwM7AHE1buBK//1dYIKx7obBuMyveQmHdC4R1N1UfcJ2o7i0YY5G4sRKAg0UNgTTi0Yq3QFTvGrxgk1nVPEgaXKbgHgCN8NcATgDqY4Go3vuAflHdZqaxDnhAVLcTAA3ls7GtBGDCbQQ7tA64RlR3080X1btQVK+ZaakGAnoWgMZV6H5sjfqjfrQEYANgL1EjbkK3QlWT9QBbiupeKKrXzLQWiurdmnTPsWItBW4R1b03MGXkvxwtAdgd2FDUCHf/a8xBt2iTcjqRmemort0NgZmiuptONQ5gKrDLyH85WgKwv6gB4ARARbUCILgHwKyqFgrr3lpYd5Mpn5H7jfwXoyUA+wob8Fth3U2mvBjdA2BWTQuFdTsB0MieAKh6ABYB94vqbrqthHU7ATCrpoXCupW9jk22EN3OqxMmAL2kwQIKN4nqNd3F2I/XADCrqkeAAVHd7gHQuVlU776MGLw5MgFYAGws+vDfi+o13cX4BLrFRMxMaw2wWFS3EwAd1Y/lmcA2w//FyARgd9EHg9f/V1JdjI+I6jWzGKpr2AmAjvJZucfw/zEyAdgDHb8C0FG9AnACYFZtqld4TgB0lM/K9X7kj0wAdhN9aB/wR1Hd5h4AMxudewCq52bSqrkKWXoA7gCeEdVtulkAHgBoVm3uAaieVcDdorrH7AHoAXYVfai7/3U2BaaJ6nYCYFZtqh6AjQaLaaiemXswbCbA8ARgHroDqprWYLCZsO6HhXWbmZ4yiZ8jrLvpVAMBN2FY783wBGBH0QeCpwAqzRLW7TEAZtWmvIZnC+tuOuVMgB2G/mF4ArCT8AP9CkBHeRH6FYBZtTkBqCblM/PZH/vDE4AdRvmLRXgKeEBUt2l7AJwAmFWb8hpW3nua7l5gpajuURMA1SuAO9EtR2m693ArgRWius0sxjLSioAK7gHQ6Ue3l8OorwBUCcBdonotUV2EqiVEzSzWElG9TgC07hXVO2oPwPaiD1PNZ7RE1Q2nummYWSxVMu9XAFphCcAcdFMA3QOg5R4AMxuP6lp2D4DWQlG9m5KmAz6bAMwXfRA4AVBzD4CZjcevAKpJ1QMAg8/8oQRgnvCD7hHWbe4BMLPxuQegmpQJwLbwXAKwrehD1uKpZGqqi9A9AGb14ASgmhYK616vB0D1CuAhdLsaWeIEwMzG41cA1bQEWCqqO+QVwIOieu05M0X1OgEwqwfVtexZAHqq1wDrvQKYK/qQ+0X1WjIJ3U6AHgNgVg+qa3k6w3aWM4mFonq3hucSgC1FH+IlgLWmC+t2AmBWD6pruQfdDxBLVD0AW8JzCcAWog/xbnJaygRgmbBuM4ujeo8MMENYt+leo28BKQGYjG49+SdE9VqivPiWC+s2szjKPT2UP0IMnhTVuzkwqXfwH3on+MudUjXeEmUC4I2AzOpBeS27B0BL9QydBMzuBbYSfQC4B0DNCYCZTcQJQHUpn6Fb9gKbCT/AA8m0lN1vqr2ozSyW8lr2KwAtZS/65r1oF3NYJKzbdNn3ALBKVLeZxXIPQHUpewBm9aJbSGYNHkimprr4VgH9orrNLNY6YLWobicAWstIS+orSBOAJ0m/JE1HdfH5/b9ZvaiuaScAWgPoVnKc2UvaG1jBAwD1VO/f/P7frF5U17THAOipnqUz1T0ApuUeADNrhXsAqkv1LHUCUHHuATCzVjgBqC5VD8CsXmAjUeV+BaA3RVSvewDM6kWV1E8W1WvPUf2YnjEZ3a/IXmB7Ud2WqJZw7sHHrqrmC+veFu/+ZuvbDN8r1FTX3PQe4DfAYaIPMDMzs/K5oheP4jQzM2ua6b14P2czM7OmmeYeADMzs+aZ3gtMzd0KMzMzCzWtF0/jMDMza5rJvejmkpuZmVk5Te4FNsjdCjMzMws1tYe0VWRv7paYmZlZmHW9eGUvMzOzpuntIe03bGZmZg3irn8zM7MG6sU9AGZmZk0z4ATAzMysefp7gb7crTAzM7NQa3uBNblbYWZmZqFW9wJrc7fCzMzMQvX5FYCZmVnz9PUCz+RuhZmZmYVa1QuszN0KMzMzC7WyF1iVuxVmZmYWyj0AZmZmDbRyMroegK8DnxLVbcmHgXcK6r0ceLugXtObD1wqqvsY4AFR3ab1HeAIQb1nAp8R1GvP+QhwuqDeVZPR9QAMAPeI6rbkSVG9PnY2mvuBe3M3wkrlCXyvqKqVvcByUeVzRPXac1SLOM0Q1WtmeUwX1et1ZPRmi+pd0QssEVW+mahee47q9Y3qZmFmeaiSeo8h09tcVO/iXmCpqHL3AOitENXrHgCzelFd06p7kD1H9Sxd2gssE1XuHgA9JwBm1gonANWlepYuVfcA9IjqtkTV/eZXAGb1orqm/QpAqweYJap7iTIBmAJsLKrbElX2PQ3oFdVtZrEmARuK6nYPgNZMYLKo7qXKQYDg1wBqqouvh5QEmFn1KV/pOQHQUo6lW9oLPC78AA8E1FJ2v/k1gFk9KK9lvwLQUv6IfrwXeEz4Ae4B0FJm3x4IaFYP7gGoLuUz9LFeYBHQL/oA9wBoOQEws4k4Aagu1TO0j8F1ANahW1LWPQBayotvI2HdZhZHmQD4FYCWKgF4AugfGumteg2wtaheS5QX30xh3WYWR7WULLgHQG2eqN5H4bmpXqoEYL6oXkuUCYDypmFmcVTzyAfQLUduyQtE9T4OzyUAj4g+xAmA1jp0SYDqpmFmsVTX8gpSEmA6C0T1PgLPJQCqPb63FdVrz1Et5OQeALN6UL1HVq4hY8kCUb33gz4BmEtahcp0FovqdQ+AWT2ormXVvceSWejGYj0A+gRgMh4IqOYEwMzG4wSgmlTv/wEehOcSgPuFH7S9sG7TXYR+BWBWD6pr2QmAljIBuA/0PQAAOwrrNvcAmNn4nABUU1gPwBJgueiDnABoqQbiuAfArB78CqCaFojqXQo8Betv+Xq36MN2ENVriSoBcA+AWT2oknnPAtBS9QDcNfQPvaP9y4K5B0DLYwDMbDzuAagmVQLw7I/9iARgJ9L+8qahugin4Q2BzKpuU2CKqG73AOj0AtuJ6h61B0D1CmBjdIGYNgv3FE6zapsrrFu1iZylV+fTRXWH9gAA7C2su+mcAJjZWLYS1u1XADp7CesetQfgTuEHKoNpOuVFqLx5mJmeMon3KwCd8ATgIeBp0Qe6B0DHPQBmNpYthXW7B0BH9cx8isGtgGH9BGAAuE30oU4AdJah2xHQCYBZtanGADyNbu0Y0z0zb2HYDo69I/7PP4o+dCfSqHLTUG3n7ATArNpUr/FU9xxLs69US+jfMvx/RCUAk4DdRXWb7mL0GACzalMl8U4AdPbk+c/mooybANyCjl8D6LgHwMxGo7qGHxbVa9pn5Xo/8qN6AMAzAZScAJjZaPwKoHqUz8pxewDuwzMBqkh1MW6GbhUxM9PaEN0ywE4AdPYU1buENNvvWSMTgH7gRtGH7yOq13QXYw8eB2BWVVuhW4b90Yn/inVI9WP5hpH/YrSBBs/7SwXZDC8JrKJ8H+djZlZNC4R1ewyAxguAOaK6n/fjPjIBADhMWHeTKbvjFgjrNjOdBcK6/QpA4whh3b8b+S+iE4DDhXU3mRMAMxtpgbBuJwAaymdkSz0AtwDPiBqgzG6abDGwWlS3XwGYVZPq2l0FLBXV3XSqBGAVcPvIfzlaAtAH3CxqxJ7AJqK6m2wA3aAcJwBm1bRAVK9//WvMRLdg3h9Iz/b1jLXa0NWiRkwCDhHV3XQPTfxXOvICUb1mprVAVK8HAGochm4FwCtH+5fRCQB4HIDKQlG926I7Kc1MYxIwT1T3vaJ6m075bBz1mT7Wjf0qYUOcAGioLsoN8IqAZlUzD90iXk4ANJTPxlGf6WMlAHcBT4gacggwWVR3k90nrNvjAMyqZYGw7oXCuptqCvBCUd2PM0bSNlYCMABcI2rMDLwqoIIyK18grNvMirdAWLd7AIq3PzBdVPdvx/o/xnu369cA1aK8KD0Q0KxaFgjrXiisu6nC3//D+AnArwUNGXKUsO6muh9YJ6p7J1G9Zqaxs6jePuBBUd1Npnwmjvksn6gHQLW4zHF4l7mirUU3PWcXUb1mpqG6Zh9glPnk1pUpwDGiulcB1471f46XAKwCriu8OcmmwMGiuptsoajeXUX1mpmGqtfO7/+LdwTpmagw7g/5ieZ3X1ZsW9bzUmHdTaW6OGcCm4vqNrNizUW34qoTgOIpn4WXj/d/TpQAjPsfd8kJQPEWCuv2awCzalBeqwuFdTeV8lk47o/4iRKA36B737MvXmCmaAuFdTsBMKsG5bXqHoBizQP2ENW9hglW9Z0oAViObj2AHuAEUd1Npbw4PQ7ArBrcA1AdJ5KehQpXAivH+wutrPF+UTFtGZVfAxTrDmHdqmlFZlYsZQLwvC1lrSvKZ2Ahz+7DSCsDKspivCxw0ZaiOVa+8Kthe3TXqxeEqoZ70Bx/1fLwTTUZ3f16gBaWFm6lB+AaYFnrMbVlFp4OWDTVg3p7vHaDWdltSNrBU+FWUb1NdTi66X9LgN9N9JdaSQD6gEu6bs7YThTW3USqi3QysIOobjMrxk6krYAV3AtYLOWz7yJaWBm21X3eleMAXiasu4mUF+lewrrNrHt7C+u+TVh3E50srPuXrfylVhOAn3fRkInsi0eYF0l5kSpvLmbWPeU16lcAxdkV3Q+qAeD8Vv5iqwnAfcAtHTdnYq8T1t00TgDMmss9ANXwBmHdN9Lihk2tJgAA53bWlpacKqy7ae4ibQyksI+oXjMrhuoaXY3XACjSKcK6f9bqX2wnAVC+BtgL2F1Yf5OsBe4W1b0taV8AMyufOaR9ABTuQLfdeNOon3ctP6vbSQCuRDsP1L0AxVF11fXggYBmZaXsoXP3f3FeL6z7ccbZ/nekdhKAdbQ4sKBDynciTaO8WP0awKycnABUg/LH7s+B/lb/cjsJAMBP2vz77dgFDzIrigcCmjWPsnfOawAUYz/SWg0qP23nL7ebAJwPrGjzv2mHXwMU4w/Cup0AmJWTsgfgJmHdTaLs6V4OXCisH4Afolu7+C514xtiQ9JWkIpjtJz2E0eL470AmmkysArNcX8GLwNelLvQXZ//3W5jOrmR/08H/02rdgD2F9bfFKvRvQaYgbYLy8zatwswVVT3H9FNLW6Sg9Eup972s7mTBODnpAeMyhuFdTfJDcK6DxLWbWbtU16TE24qYy35E2Hdq+hgkH4nCcBTaPcGeCupC9u683th3RNuM2lmoZTXpPJe0hQbAqcJ67+A9Hq2LZ2+yz2nw/+uFZsBrxTW3xQ3Cut2D4BZuSivSeW9pCleS3q2qSifyc8zg5RtqAYzKHsYmmI2uuPzDO6lKSsPAmyeqaTXsopj3o9uz/omuQTddbmc9ExuW6c9ACtoY73hDhwL7CisvwkWA/eL6t4QTwc0K4v9gA1Edd8DLBPV3RQ7AEcL6/8RHU7P72Y613918d9OpAd4u7D+pvBrALP6c/d/uZ1BeqapdPws7iYBOB94sov/fiLvwHNPu+UEwKz+PACwvCYDbxbWvwj4Zaf/cTcJwFrSokAqWwEnC+tvAuXF6wTArBzcA1BerwS2FtZ/DhnXaDgc3cCGAbRbEDeBckDYOjw4qIw8CLBZZpEG6qmO+bZxodTSBWifkdl/iN2K9iGzXVwotdND2sJZdXyOiwvFWuQEoFlegu54PxoYRx3NB/rQHZ+bu21gEWu6f7uAOsbSiwcDdmMAuEpY/6HCus1sYocJ61beO5rgncAkYf3f6raCIhKA75CyHJU/Q7fGdRNcLaz7SGHdZjaxo4R1K+8ddbchKQFQ6QO+120lRSQAjwK/KKCesWyJ9wfohjKLPwzP1DDLZQppgxkV9wB07i2kgewqP6dEr2hei+49x9C7DuU8yjrbBO17qOyDUGw9HgPQHIehO9Z9wEZxodRKD2kHReUzsZDl8ova1/0nwMMF1TWaPYCXCuuvs6dIAzVVlF2QZjY25bV3Mx1sLmMAvBzYTVj/I8B5RVRUVALQB/xHQXWN5f3i+utM2ZXncQBmeSivPXf/d079rDqTjHP/x6Ke8uDu5s79KbpjspjiEknrnl8BNMMkYAm6Y+3ZV505EO0zcC2wTVGNLfLG/QD6hXveJ66/rpTZ/CzSKxozi7MPMFNYv3sAOvM34vrPBR4Sf0bHTkSf/WwXFk199AJL0R2X98SFYhNwD0Az/CW647wE9+p1YgHpGaV8Br6kyAYXfZB/AdxVcJ3DTQb+Qlh/XfUD1wrr9zgAs1jKa+5q0j3D2vNXpGeUyp10sfHPaIpOAPqBLxRc50jvRNv1VVdXCus+Gk/TNIvSixcAKptZpB1slT5PBRKzGWjXnx8A/jYsmvo4Du0x2SsuFBuHXwHU3wFor+UXxYVSGx9De0wWAdOLbrTiPc8K4CuCeof7IO4FaNdvgdXC+gt9N2VmY1Jea6vxAMB2zSR1/yv9G7Cy6EpVAz2+BDwjqhvSF+4ZAe1ZCVwjrP94Yd1m9hzltXYVsEpYfx19gPQKQGU18FVh/RJfR9slshSYHRZNPXwS3fFYBUyLC8XG4FcA9Tad9ONKdYw/ERZJPcwhrbaqfNbJHv7KqR7/gnbAwqZ4dcB2XSqseypwuLB+M4NjSDvNqVwirLuOPgRsLKx/APiisH6pc9FmRsuBLcKiqb6ppF/qquPx6bhQbAzuAai3z6M7vqvw1uvt2Io05k35jPtxWDQCx6D9cgZIPQ3WusvQHYsbAuOw0TkBqLdb0B3fiwPjqIMvon++HREWjcjVaL+gVRS4NnID/AO6Y9EPbB0Xio3CCUB9bUO6xlTH92NxoVTeXNLAauWzTTloG4hZ7lG9MNBU0nsYa82lwrp7gGOF9Zs12UvQLrh1qbDuuvkY+kHPnxHXH2IysBBtpvQMsG1QPFWnHgfwn3Gh2CjcA1BfZ6M7tivQDi6skwWkqXnKZ9rdpB0fa+FdaL+sAeCbYdFU3yXojsOTaNfDtvE5AainKWi3/70oLpTK+w7659k7w6IJMIWU0Si/sHXAC6MCqriPoj0WR8eFYiM4Aain49Fesx+MC6XSDiA9a5TH4j5gg4hgorZ8XAv8X/Fn9JLGG3hTmomdL67/FeL6zZrm5eL61feEOughPWPUz81/BNaIPyPcJOA2tJnTAPD6qIAqrAd4CN0xUG4JbeNzD0A93YPuuD6Afzi14k3on19hv/5zOA39F/gAgl2TauhbaI/D7nGh2DBOAOpnH7TX6tfjQqms6aSHs/r59a6ogCDuFcCQs0kLWSjNw0sEt8KvAcyqQX0tuft/Yh9GP9PsPtIPs1p7HfosaiWeFjiRWaSxGapj8Ju4UGwY9wDUz7Xojuka0r4qNrb56Jf8HQDeFhRPVj2kJWPVX+Z3owKqsF+j+/7XkdbKtlhOAOplLtrV/y6JC6WyzkH/vLqNDNOno18BQAr24wGf80ZqsI6ymLLrrxc4SVi/WRO8Au0APXf/j+9wUq+12keAvoDPKY2r0GdV15MnyamK/dB+/+fGhWKD3ANQLxegvUb3jgulcnrRvn4ZKtfSwFkYJ6D/Ygeo2YpKBVNPB1wDzA6LxsAJQJ1shnacjqf/je/PiXlGHR8V0Eg5l2y9cLCcIP6cLwH7Ak+LP6eqniS9Z1SYQtob4A+i+u35Zgrr/iCwTFi/rW9ftPfoJ4H/J6y/yjYC/jTgc35JxmWYc2d/uwG/Jz0ozMzMmqKPlOSpp8aPKff78VuBMzO3wczMLNqXyfjwh/w9AJDmo99Bet9lZmZWd4uBnUmvYbIpw37Dz5D2p/eUMTMza4K/Bq7I3Ygy9ABASkRuAPbK3RAzMzOhW0jv/rPP+889BmDIOuAvczfCzMxM7K8owcMfypMAAPwKLxxjZmb19SMyTvsbqSyvAIbsBNxMjfdDNjOzRloN7AHcnbshQ8owCHC4xaSdqQ7L3RAzM7MC/Qvwg9yNGK5sPQCQEoDb8E5yZmZWD48Au1CyFWnLNAZgyDI8INDMzOrjvZTs4Q/l7AEY8iPgVbkbYWZm1oWfAS/P3YjRlDkBmEuaL6nc3MTMzEzlKWB30q6rpVO2QYDDPT1YTs7dEDMzsw78BXBp7kaMpcw9AJDGKFwKHJm5HWZmZu24HDgGGMjcjjGVPQGAtGHC74GpuRtiZmbWgtXAfqQdb0urzK8AhjxJSlRenLshZmZmLfg4aSB7qVWhBwBgMnAtaQMFMzOzsroJOBBYm7shEynjOgCj6QPeRdo0yMzMrIz6gT+jAg9/qMYrgCEPAbOAQ3I3xMzMbBSfA/4jdyNaVZVXAEOmA9cDu+ZuiJmZ2TC3krr+V+ZuSKuqlgAA7A9cSdyOgTdT8pGcQhsDJ4o/417gOvFnNMkM4CRR3ecBK0R1N9ELgQXizzgfWC7+jLLag7QIT4TVwKHADUGf12gfIs2tjCjrgJfGhFVKl6D9flcCs8Oiqb/t0R2rFwTGUXdzgFVor63S7DufwfGksWNRz4n3x4RlkAYvXkzcwX2SdGNtojei/369+VNxnABUwwfRX1enhEVTLguAJ4h7PlxKdQbU18Y2xB7kG0ljEJpmQ2AR2u/2dnwBFcUJQPn1AnehvaYeI+41aZlMI40Ti3ouLAbmh0Rmz/M64g70APCdmLBK57Pov9tS7pZVQU4Ayu816K+nT4VFUx49wPeIfSa8OiQyG9N/EHvAPxoTVqnsQprfqvxeLwuLpt6cAJTfb9FeS/3ATmHRlMcniH0WnBkSlY1rBqkLOeqg9wNvDomsXC5F/916jYfuOQEot8PRX0dNHPz3J+h/pAwvd5JmSVkJHACsIe7gr6Z5exOchv57PScsmvpyAlBuP0J/HZ0aFk05HA08Q9z9fw1wcEhk1rK/I+4EGCDNDNglJLJy2BB4HO132gfsEBVQTTkBKK+dSNOKldfQItK12hS7kQbiRd77PxQSmbVlEnAhsSfC3cAWEcGVxOfQf6dfCoumnpwAlNdX0V8/TRr8txVpIbHIe/55eMZSac0mPZQjT4hraM70wJ3R/4JZTlokxTrjBKCcNicteqW8dvpoznol00grwkbe6xfie1Pp7UNarjTyxPgp1dpYqRs/Rf99/l1YNPXjBKCc/gH9dfPDsGjy6gX+l9h7/CrSMvRWAW8i9uQYAP45JLL8XoT+u3yMNLvD2ucEoHw2Qr+Y1gBwZFRAmX2R+Pv72yICs+J8hfiTpCnrQd+A/rv8QFg09eIEoHz+Fv310pQNtT5M/H3d45IqaApwBbEnSj/w7ojgMnsr+u9yEemXk7XHCUC5zEA/e2aANA++7t5D/MP/tzRzSeVa2Bp4mPgk4PSI4DLagJjv1b0A7XMCUC4Rv1gfJP3gqbO3oB+APLI8StpzxirsMGIXCRogjcZ9fURwGUWsu+BegPY5ASiPGaTxLOrrpO7z0l8DrCX2Hr4WOCoiONP7a2JPngFS0vGyiOAymU2asqf+Ht0L0B4nAOUR8et/BfWemnYCsav8DZW/iAjO4pxN/Em0kjRqvq7ORP8duhegPU4AyiHq1/+/RQWUwbGk6XfR9+3vRgRnsaYCvyH+ZFpBfafn7EbMBhzuBWidE4By+BD662Id9V2O/BDgaeLv11fTnIXdGmcz4A7iT6qlpA2L6ihiQY7H8M5brXICkN8mxIz8/0FUQMH2IX59/wGat7R7I+1C2sgn+uR6HNgvIL5o+xLTC/DJqIAqzglAfv+E/nrop54r0+1PzKJJI8si0mZN1gBHkmdgyRLSrIS6+Tn6724lMD8qoApzApDXNsQsRf6TqIACvZA8P85WAYcHxGclcioxv1xHluXAcQHxRTqYmO/u61EBVZgTgLy+Rcy18MKogIIcDTxF/P24HzgtID4roYi57KOVZ4BXBcQX6SL031sfsGdUQBXlBCCfvUnnqPo6OD8qoCAno98pcazy4YD4rMRy7BkwAKwGXhcQX5TDiPnefhYVUEU5AcjnQmKugSOiAgpwKvELtQ2VbwTEZyU3hbgLd2TpA96uDzHMZcR8b3V7hVIkJwB5vJiYc//iqIACvIn4Ff6GygXAZH2IVgUbAzeS50Tspz6rTh1HzHd2A2lPcHs+JwDxeoHriTn3j4kJSe7dxK/tP1RuBjbVh2hVsg1pHmiOE7Kf+ix2cyUx39lbowKqGCcA8U4n5pz/dVRAYjm29B0qdwFz9SFaFW0LLCTfyflFqv/L9hhivqvHgJkxIVWKE4BYs4hZ9GeA9JqhyiaR7nG57q8P4HPYJrAT8Aj5TtL/pfpLUUaNqfjXqIAqxAlArKhBxOdFBSQyA/gx+e6rj5OWLjeb0F7kWZBiqFwNbCmPUmcfYt7v9VHP1RW74QQgzgHETPtbR7WnBlB7AAAOxklEQVTP862Aa8h3P11Ctb8/y+Ag8ixMMVTuodoZ6/eI+Z6uofqvTYrkBCBGL3HjXc4Kiklhd+Be8t1Hl1G/RZMsyGHE7Hk/VllMdUf9LiBuueU6TaXslhOAGGcQc26vJh3TKnox6dd3rvvnStIKg2YdO548e1IPvwG8SR6lxr8S8x09AcwJiqnsnADozSZuw5rPB8VUtLeS7l0575snyaO0Rngl+RasGCBNE/wE0COOs2hbEPca5StBMZWdEwC9rxNzTi8DNg+KqSg9pHtVjn1WhkofcIo4TmuY08i3cMVQOQuYpg60YB8n5rvpxysEghMAtRcT93D7u6CYijKduLE/Y5V1eHMfE3kD+datHio3UK13ghsBjxLz3dxFmm7UZE4AdDYmbkDbI6Rrpyq2Ba4l772xDy8QZmIvI++YgAHSFMUT1YEW6B3EfTdfDIqprJwA6Pw7cefx22JCKsRJpAHLOe+Jq4HXqAM1A3gR8DR5T/h+4FNUYwpcD3FTptYBR8WEVUpOADReRFzX/2+pxnifHuBD5H81ugI4QRyr2XqOJA3SyXniD5C2x63Ckrj7E3ejuIfmvgpwAlC8GaTXSxHn7jrSGiRltwlp1dLc97+nqf4SyVZRB5CmoOW+CO4krV5Ydl8j7jv5bFBMZeMEoHhfJu68/fegmLqxN3EJ0XhlMXCIOFazce0OPET+i+Fp4PXiWLu1GXFLLK8DDo8Jq1ScABTrGOJ6rqqwnsWfkHdxtKHyKGnJcbPsdiXtNJX7ohggLb4zVRtuV95D3HdxP2nRliZxAlCcWcB9xJ2v74oJqyPTiB0EOdF1vbM2XLP2bEfqis99cQwAtwD7asPt2CTSVMao7+KHMWGVhhOA4vyIuPP0etK1UUZ7AL8n/31tgDQNcwdtuGad2Qa4ifwXyQBpquL7KOdo4sOIXSnsjJiwSsEJQDH+D3HnZz9waExYbekB3k/cnh4Tld8Dc6URm3VpI+Dn5L9YhspFlPOi+Q/ivoOVpF8xTeAEoHt7E7vWx9diwmrLlsB55L9/DZVfAJtKIzYryGTS2vS5L5qhsoi0n0GZbAo8SNx3cDNpqdK6cwLQnenAH4k7Lx+ifNN4X0XcZketlG8CU6QRmwm8j/yLZAwvZ1Gu+fEvIzb+JmwY5ASgO98g9pwsU2I+jbSSZu771FAZ2gTNrLL+hPK8Qxsg/brZXxpxe/6b2PjfGBNWNk4AOvdmYs/F78aE1ZIDgdvIf38aKqso/7Rms5YcCjxO/otqqKwlZfpl6A3YDHiM2BvLgSGR5eEEoDP7kZaUjToPF1GOrX6nkX5l597kbHh5kmYv5201tANwO/kvruHlbsqxhe6fEBv3fcAWIZHFcwLQvi2JX8fjdSGRje8oyvWrf+ietIsyaLNc5gCXk/8iG176SWMDcq9AFr2u+K+BDUIii+UEoD1TgMuIPfd+EhLZ2GYCZxI7FbeVciX1TczNgNTldjb5L7aR5WHgtcK4J7I18VuKfjkkslhOANpzJrHn3BLSeiG5nEpaRjf3/WZk+S7lXsHUrFBnUK73bkPlXGC+MO7xRA/CGgBOD4ksjhOA1r2b+PMt1yDUrYH/abGNkWUtaUths8Y5mnJm40tJCUqvLvQxfbeD9nZTnqFeA46cALTmWOIT8O+ERLa+XuDPKcfW5SPLI6Rt1c0aay7wW/JfjKOV64m/QDcifrDkMuqzs5gTgIntReqKjzzH7gI2iQhumINJ79Vz30dGK7+mnCuUmoWbDHyK/BflWOVcYIEq+FEcCKwuOIaJykOkDZ2qzgnA+F5AGu8SeW6tIT2Mo8wjDewt2yC/oXIm9RyAa9aV04idi9xOWUlKUjaSRb++vw2IaWS5hepvH+wEYGybkWfa299EBEdaxvhDwNMBMXVSVgHvkEVvVgP7kubC5r5YxyoPAm9Bv8tgL/DLDPFdRTkWSOqUE4DRTQd+Q/z5dAn6sTQ9wCnAwgzxtVruA14oit+sVmYDF5D/oh2vXIN+C9NtyLMpybmk1zJV5ATg+SYBPyb+PHqcNPpe6QDS+/Tc94PxynlUv2fNLNQk4COUc6rgUFkHfAvtu/NXkOdd5ndJx6BqnACsbzLx+00MkM7Zk4RxLSDNKijre/4B0jieD5FnNpFZLRxI+ZYQHlnWkAb2qBY4+adMcX2f6vUEOAF4ziTge+Q5d/5BFNM80j4eZdpgbLRyD/oeQrNGKNs2nWOV1aREoOhuz17gZ5liOodqJQFOAJJJwH+R55y5gOJ7jzYnDcJdmSmmdspZxA0WNmuMVwNPkP8Cn6gsJyUsWxYY+yzgzkzx/IC0ZnwVOAFIxyrXqne3k9baL8oc0m59T2WKp52yBHhDgbGb2QhbAueT/2JvpTxN+tVS1A1xV/KtaPZDqpEEND0BmEL8xlJD5Slgj4Li2Jj0/nxppljaLReTd48Ds8boBT5I/GI5nZbFwEcpJhF4LfkGPv2YNJ2szJqcAMwg36uifuBVBcQwC/gY8SsVdlpWAx/AA/3Mwu0J3ET+m0Cr5WnSGIGduoz7HzPGcDXl3rK0qQnAHPLM8x8q3Q76W0DqLavKL/4B4FZg/y7jNrMuTAc+B/SR/4bQallL2hL5gA5j7gV+nrH9dwA7dth2tSYmADuT1trPdT6cS+e/gA8kTVOs0vXbB3yW8veGmTXGvsB15L85tFt+TVrFrN1R0xuTNivK1e4ngSPabHOEpiUAB5MW3Ml1HlxH+yPee4DjSIlD7uuv3XITcFCb8ZpZgMmkgUOryH+jaLfcCbyPNOWxVZuTb2bAwOD3fGob7Y3QpATgVeTdO+MeYKs22rsBaRntmzO2uZtz/RN4Ex+z0tsVuJz8N41OyiOk96nbthjrjsBjGdvbT3p3W5ZBUE1IAHpIiW7ObvNFwC4ttnc74JPAoxnb2025jPSaxcwqoof0a+NJ8t9AOinrgItIrwcmmn53EGntgZztvZhyDA6sewIwh/zTYFcCh03Qzkmkbv5zSGNecl9PnZSlpF65siS3ZtamrUlz2HPfTLopj5IWFhpvjvXLyH+jvR84ZJw2RqhzAnAAqds95zHuY/zpfjuReoSq+mt/qJwLzB8nTjOrkFNI3eu5byzdlH7SL+03ABuOEuMZJWjjM6RfTbnUNQE4g3Kse/Hno7RtKvBG4FeUe3OeVsrDpLU2zKxmNgU+T/5fykWUJwZjGbnH+CdK0LYB0kZCm413METqlgBsQb5lfUeWj45o20HAF6jua7bh5RlSz8XG4x4NM6u8XUgbluS+6RRV7iO9IhialvfJErRpgDQ48S2tHJAC1SkBOIW8U/yGl48PtmkPUpJ5RwnaVFQ5F9ihheNhZjXycuBe8t+Aiiz3kpKBb5egLcNvsHNbOyRdq0MCsCXlGrfyTdJD/9YStKXIcivw0tYOiZnV0XTSlKpcm+woy6IStGGoLCG9x1aregJwCuU6blUfzDdaeZI0TqVK21ybmdDWwDeo1pKkVSy/BPZr8Zh0oqoJwB7kXd65CWUNaczCrBaPiZk1zG7k21GtKWUdaX74di0ek3ZULQHYhrRBlBNPbbmItHmYmdmETqCaewtUqawgDVhsdy358VQlAdiYtKvjSmF7XeBa4PgWj4mZ2bN6SO9kbyP/jazO5VHSOIyZrR2WcZU9AZgFfIS8yzc3ofyRNJ+/p7XDYmY2usnA6aSV7nLf2OpcnibNYNiutcMyqrImAAuo3n73VSwLgbfT/u6aZmbjGtrN7G7y3+jqXNYC/0Va+rZdZUsADgTOph6LT5W53Eca2T+1tcNiZtaZoUTgLvLf+OpebiHNQd+xlQNDORKA+aSH0fVB31GTix/8ZpbFBsC7qN9iQmUt15Fu9luOc0xyJQCzSUnhRVR/PfwqlLuBd5KuQTOzbHpJqwpeS/4bYxNKH+nX9WdJuyBuOuxYRCUAM0nH/HPA70hTG3N/L00o15MSLS/iY13zCFErUg9padEPA0dmbkuTrANuAC4DHiI9lBX+GpgHHA3siweaReknrc3xL8AVmdtiZjahw4Af4AVeXFw6LatIiyTtgpmAewBMbS5pDfz3kt4Tm9n4lgHfAT4NPJy5LVZjTgAsysak+cnvpfUR7WZNcidprf5vk1ZINJNyAmDReoEXk3oFXgVMydscs6z6gV8BXwP+lzSewyyEEwDLaWvSiOY/B7bN3BazSI8AZwFfIc3lNwvnBMDKYDJpOtvbgZPwFCerp7XAecB/DP7Zl7c51nROAKxsZgOvI/UK7JO5LWZFuI30Xv/bpE2QzErBCYCV2SHAm4FTgc0yt8WsHYuAc4D/BK7O3BazUTkBsCqYBLyINF7gVaQZBWZls4q0YM9/AheQuvzNSssJgFXNDOCVpF6BE/AmKJbXKuBC0q/9n+Dpe1YhTgCsyqYBxwGn4J4Bi7MKuJi00uWPgafyNsesM04ArC6mASeSegdOAjbP2xyrmcdJI/d/QvrFvypvc8y65wTA6qgX2I+0W93LgP3xuW7t+yNwLvBL4FI8bc9qxjdFa4JtSb0DxwPHArPyNsdKajGpa/8i0iC+B/I2x0zLCYA1zSTgQFIycDxwKF6OuKnWAFeSHvgXAdfjpXitQZwAWNNNJ70iOJw0oPBw0ngCq5+1wE2kLv3fAJfhAXzWYE4AzNa3IXAQcCRpIaKDgS2ytsg69RhpEZ6rgCuAa0i/+s0MJwBmrdie9Krg4MGyN15/oGxWkX7dX81zD/17srbIrOScAJi1bxKwK7A7sAdwACkx8NTDGE8BfyC9s7+FNFr/WmB1zkaZVY0TALPizCIlBLsP+3MfnBh06ingTtID/pZhf94LDGRsl1ktOAEw05sL7DhYdhj2z9sDMzO2qwyWAncDdw37c6g8krFdZrXnBMAsr02A+cB2wLzBf94W2ArYmtR7sDnptUOVrCPtiPc48OhguQ94kDS//v7B8nSuBpo1nRMAs/LrISUBWwz+OWuwzBwsQ/+8KbAlKamYMVg2GCy9g/UMldEMDCv9pBHza4AVwHLSw/oxYBmwhPTrfemwf15CeuAvGizupjcrsf8fVCS0/zs0NhYAAAAASUVORK5CYII=;" vertex="1" parent="1">
          <mxGeometry x="160" y="410" width="72" height="72" as="geometry" />
        </mxCell>
      </root>
    </mxGraphModel>
  </diagram>
</mxfile>
